<svg width="724" height="624" viewBox="0 0 724 624" fill="none" xmlns="http://www.w3.org/2000/svg">
<path d="M616.646 295.354C616.842 295.549 617.158 295.549 617.354 295.354L620.536 292.172C620.731 291.976 620.731 291.66 620.536 291.464C620.34 291.269 620.024 291.269 619.828 291.464L617 294.293L614.172 291.464C613.976 291.269 613.66 291.269 613.464 291.464C613.269 291.66 613.269 291.976 613.464 292.172L616.646 295.354ZM616.5 234L616.5 237.05L617.5 237.05L617.5 234L616.5 234ZM616.5 243.15L616.5 249.25L617.5 249.25L617.5 243.15L616.5 243.15ZM616.5 255.35L616.5 261.45L617.5 261.45L617.5 255.35L616.5 255.35ZM616.5 267.55L616.5 273.65L617.5 273.65L617.5 267.55L616.5 267.55ZM616.5 279.75L616.5 285.85L617.5 285.85L617.5 279.75L616.5 279.75ZM616.5 291.95L616.5 295L617.5 295L617.5 291.95L616.5 291.95ZM616.293 295.707C616.683 296.098 617.317 296.098 617.707 295.707L624.071 289.343C624.462 288.953 624.462 288.319 624.071 287.929C623.681 287.538 623.047 287.538 622.657 287.929L617 293.586L611.343 287.929C610.953 287.538 610.319 287.538 609.929 287.929C609.538 288.319 609.538 288.953 609.929 289.343L616.293 295.707ZM616 234L616 237.05L618 237.05L618 234L616 234ZM616 243.15L616 249.25L618 249.25L618 243.15L616 243.15ZM616 255.35L616 261.45L618 261.45L618 255.35L616 255.35ZM616 267.55L616 273.65L618 273.65L618 267.55L616 267.55ZM616 279.75L616 285.85L618 285.85L618 279.75L616 279.75ZM616 291.95L616 295L618 295L618 291.95L616 291.95Z" fill="white"/>
<path d="M68.5795 200.11V202.951C68.2879 202.989 68.0246 203.066 67.7898 203.184C67.5549 203.301 67.3542 203.456 67.1875 203.65C67.0208 203.843 66.8939 204.072 66.8068 204.337C66.7159 204.598 66.6705 204.888 66.6705 205.206C66.6705 205.771 66.8087 206.258 67.0852 206.667C67.3617 207.072 67.7614 207.384 68.2841 207.604C68.8068 207.82 69.4394 207.928 70.1818 207.928C70.9545 207.928 71.6023 207.818 72.125 207.598C72.6439 207.375 73.036 207.062 73.3011 206.661C73.5625 206.256 73.6932 205.777 73.6932 205.223C73.6932 204.913 73.6534 204.631 73.5739 204.377C73.4943 204.119 73.3788 203.894 73.2273 203.701C73.072 203.504 72.8845 203.343 72.6648 203.218C72.4413 203.089 72.1894 203 71.9091 202.951L71.9261 200.11C72.4413 200.159 72.9489 200.309 73.4489 200.559C73.9489 200.805 74.4053 201.144 74.8182 201.576C75.2273 202.008 75.553 202.534 75.7955 203.155C76.0379 203.773 76.1591 204.481 76.1591 205.28C76.1591 206.333 75.928 207.277 75.4659 208.11C75 208.939 74.322 209.595 73.4318 210.076C72.5417 210.557 71.4583 210.797 70.1818 210.797C68.9015 210.797 67.8163 210.553 66.9261 210.064C66.036 209.576 65.3598 208.915 64.8977 208.081C64.4356 207.248 64.2045 206.314 64.2045 205.28C64.2045 204.576 64.303 203.924 64.5 203.326C64.6932 202.727 64.9773 202.201 65.3523 201.746C65.7235 201.292 66.1799 200.922 66.7216 200.638C67.2633 200.354 67.8826 200.178 68.5795 200.11ZM76.1648 194.427C76.1648 195.343 75.9773 196.131 75.6023 196.79C75.2235 197.446 74.697 197.951 74.0227 198.307C73.3447 198.66 72.5587 198.836 71.6648 198.836C70.767 198.836 69.9811 198.66 69.3068 198.307C68.6288 197.951 68.1023 197.446 67.7273 196.79C67.3485 196.131 67.1591 195.343 67.1591 194.427C67.1591 193.51 67.3485 192.724 67.7273 192.069C68.1023 191.41 68.6288 190.904 69.3068 190.552C69.9811 190.196 70.767 190.018 71.6648 190.018C72.5587 190.018 73.3447 190.196 74.0227 190.552C74.697 190.904 75.2235 191.41 75.6023 192.069C75.9773 192.724 76.1648 193.51 76.1648 194.427ZM74.0682 194.41C74.0682 194.076 73.9659 193.794 73.7614 193.563C73.5568 193.332 73.2727 193.156 72.9091 193.035C72.5455 192.91 72.125 192.847 71.6477 192.847C71.1629 192.847 70.7386 192.91 70.375 193.035C70.0114 193.156 69.7273 193.332 69.5227 193.563C69.3182 193.794 69.2159 194.076 69.2159 194.41C69.2159 194.754 69.3182 195.046 69.5227 195.285C69.7273 195.519 70.0114 195.699 70.375 195.824C70.7386 195.946 71.1629 196.006 71.6477 196.006C72.125 196.006 72.5455 195.946 72.9091 195.824C73.2727 195.699 73.5568 195.519 73.7614 195.285C73.9659 195.046 74.0682 194.754 74.0682 194.41ZM64.3636 185.816H76V188.594H64.3636V185.816ZM64.3636 181.269H76V184.047H64.3636V181.269ZM76.1477 177.04C76.1477 177.597 76.0549 178.091 75.8693 178.523C75.6799 178.951 75.3958 179.29 75.017 179.54C74.6345 179.786 74.1553 179.91 73.5795 179.91C73.0947 179.91 72.6856 179.824 72.3523 179.654C72.0189 179.483 71.7481 179.249 71.5398 178.949C71.3314 178.65 71.1742 178.305 71.0682 177.915C70.9583 177.525 70.8845 177.108 70.8466 176.665C70.8011 176.169 70.7538 175.769 70.7045 175.466C70.6515 175.163 70.5777 174.944 70.483 174.807C70.3845 174.667 70.2462 174.597 70.0682 174.597H70.0398C69.7481 174.597 69.5227 174.697 69.3636 174.898C69.2045 175.099 69.125 175.37 69.125 175.711C69.125 176.078 69.2045 176.374 69.3636 176.597C69.5227 176.821 69.7424 176.963 70.0227 177.023L69.9318 179.586C69.4015 179.51 68.928 179.315 68.5114 179C68.0909 178.682 67.7614 178.247 67.5227 177.694C67.2803 177.137 67.1591 176.468 67.1591 175.688C67.1591 175.131 67.2254 174.618 67.358 174.148C67.4867 173.678 67.6761 173.269 67.9261 172.921C68.1723 172.572 68.4754 172.303 68.8352 172.114C69.1951 171.921 69.6061 171.824 70.0682 171.824H76V174.438H74.7841V174.506C75.0795 174.661 75.3295 174.86 75.5341 175.103C75.7386 175.341 75.892 175.624 75.9943 175.949C76.0966 176.271 76.1477 176.635 76.1477 177.04ZM74.3295 176.182C74.3295 175.883 74.2689 175.614 74.1477 175.375C74.0265 175.133 73.8598 174.94 73.6477 174.796C73.4318 174.652 73.1818 174.58 72.8977 174.58H72.0682C72.1098 174.66 72.1477 174.756 72.1818 174.87C72.2159 174.98 72.2481 175.101 72.2784 175.233C72.3087 175.366 72.3352 175.502 72.358 175.643C72.3807 175.783 72.4015 175.917 72.4205 176.046C72.4621 176.307 72.5265 176.531 72.6136 176.716C72.7008 176.898 72.8144 177.038 72.9545 177.137C73.0909 177.232 73.2538 177.279 73.4432 177.279C73.7311 177.279 73.9508 177.177 74.1023 176.972C74.2538 176.764 74.3295 176.5 74.3295 176.182ZM67.2727 165.199H69.3182V170.705H67.2727V165.199ZM65.1818 169.552V166.773H73.2557C73.4261 166.773 73.5644 166.747 73.6705 166.694C73.7727 166.637 73.8466 166.555 73.892 166.449C73.9337 166.343 73.9545 166.216 73.9545 166.069C73.9545 165.963 73.9451 165.851 73.9261 165.733C73.9034 165.612 73.8845 165.521 73.8693 165.461L75.875 165.04C75.9129 165.173 75.9602 165.36 76.017 165.603C76.0739 165.841 76.1098 166.127 76.125 166.461C76.1553 167.112 76.0795 167.671 75.8977 168.137C75.7121 168.599 75.4242 168.953 75.0341 169.199C74.6439 169.442 74.1534 169.559 73.5625 169.552H65.1818ZM76.1648 159.796C76.1648 160.709 75.9848 161.497 75.625 162.16C75.2614 162.819 74.7443 163.326 74.0739 163.682C73.3996 164.035 72.5985 164.211 71.6705 164.211C70.7689 164.211 69.9811 164.033 69.3068 163.677C68.6288 163.321 68.1023 162.819 67.7273 162.171C67.3485 161.523 67.1591 160.76 67.1591 159.881C67.1591 159.26 67.2557 158.692 67.4489 158.177C67.642 157.661 67.928 157.216 68.3068 156.841C68.6856 156.466 69.1534 156.175 69.7102 155.966C70.2633 155.758 70.8977 155.654 71.6136 155.654H72.3068V163.239H70.6932V158.239C70.3977 158.243 70.1345 158.313 69.9034 158.449C69.6723 158.586 69.4924 158.773 69.3636 159.012C69.2311 159.247 69.1648 159.518 69.1648 159.824C69.1648 160.135 69.2348 160.413 69.375 160.66C69.5114 160.906 69.6989 161.101 69.9375 161.245C70.1723 161.389 70.4394 161.464 70.7386 161.472H72.3807C72.7367 161.472 73.0492 161.402 73.3182 161.262C73.5833 161.122 73.7898 160.923 73.9375 160.665C74.0852 160.408 74.1591 160.101 74.1591 159.745C74.1591 159.499 74.125 159.275 74.0568 159.074C73.9886 158.874 73.8883 158.701 73.7557 158.557C73.6231 158.413 73.4602 158.305 73.267 158.233L73.3409 155.682C73.9129 155.788 74.411 156.021 74.8352 156.381C75.2557 156.737 75.5833 157.205 75.8182 157.785C76.0492 158.364 76.1648 159.035 76.1648 159.796ZM76 154.235H67.2727V151.536H68.8636V151.445C68.2879 151.286 67.8598 151.027 67.5795 150.667C67.2955 150.307 67.1534 149.888 67.1534 149.411C67.1534 149.282 67.1629 149.15 67.1818 149.013C67.197 148.877 67.2216 148.75 67.2557 148.633H69.6705C69.625 148.765 69.589 148.939 69.5625 149.155C69.536 149.367 69.5227 149.557 69.5227 149.723C69.5227 150.053 69.5966 150.35 69.7443 150.616C69.8883 150.877 70.0909 151.083 70.3523 151.235C70.6098 151.383 70.9129 151.456 71.2614 151.456H76V154.235ZM76.1477 145.368C76.1477 145.925 76.0549 146.42 75.8693 146.851C75.6799 147.279 75.3958 147.618 75.017 147.868C74.6345 148.115 74.1553 148.238 73.5795 148.238C73.0947 148.238 72.6856 148.152 72.3523 147.982C72.0189 147.812 71.7481 147.577 71.5398 147.277C71.3314 146.978 71.1742 146.634 71.0682 146.243C70.9583 145.853 70.8845 145.437 70.8466 144.993C70.8011 144.497 70.7538 144.098 70.7045 143.795C70.6515 143.491 70.5777 143.272 70.483 143.135C70.3845 142.995 70.2462 142.925 70.0682 142.925H70.0398C69.7481 142.925 69.5227 143.026 69.3636 143.226C69.2045 143.427 69.125 143.698 69.125 144.039C69.125 144.406 69.2045 144.702 69.3636 144.925C69.5227 145.149 69.7424 145.291 70.0227 145.351L69.9318 147.914C69.4015 147.838 68.928 147.643 68.5114 147.329C68.0909 147.01 67.7614 146.575 67.5227 146.022C67.2803 145.465 67.1591 144.796 67.1591 144.016C67.1591 143.459 67.2254 142.946 67.358 142.476C67.4867 142.007 67.6761 141.598 67.9261 141.249C68.1723 140.901 68.4754 140.632 68.8352 140.442C69.1951 140.249 69.6061 140.152 70.0682 140.152H76V142.766H74.7841V142.834C75.0795 142.99 75.3295 143.188 75.5341 143.431C75.7386 143.67 75.892 143.952 75.9943 144.277C76.0966 144.599 76.1477 144.963 76.1477 145.368ZM74.3295 144.51C74.3295 144.211 74.2689 143.942 74.1477 143.704C74.0265 143.461 73.8598 143.268 73.6477 143.124C73.4318 142.98 73.1818 142.908 72.8977 142.908H72.0682C72.1098 142.988 72.1477 143.084 72.1818 143.198C72.2159 143.308 72.2481 143.429 72.2784 143.562C72.3087 143.694 72.3352 143.83 72.358 143.971C72.3807 144.111 72.4015 144.245 72.4205 144.374C72.4621 144.635 72.5265 144.859 72.6136 145.045C72.7008 145.226 72.8144 145.366 72.9545 145.465C73.0909 145.56 73.2538 145.607 73.4432 145.607C73.7311 145.607 73.9508 145.505 74.1023 145.3C74.2538 145.092 74.3295 144.829 74.3295 144.51ZM64.3636 135.675H76V138.454H64.3636V135.675Z" fill="white"/>
<rect x="92.3286" y="71.0461" width="6.54367" height="226.224" fill="#01A7FA"/>
<rect x="92.4754" y="71.0098" width="52.3425" height="3.60983" fill="#01A7FA"/>
<rect x="92.4754" y="294.819" width="52.3425" height="3.60983" fill="#01A7FA"/>
<rect y="307" width="724" height="8" fill="#F6BD39"/>
<circle cx="194.453" cy="310.16" r="9.92702" fill="#0EA541"/>
<circle cx="194.453" cy="310.16" r="6.3172" fill="#2FF873"/>
<path d="M156.901 340.685V352.321H154.515L149.884 345.605H149.81V352.321H146.998V340.685H149.418L153.998 347.389H154.094V340.685H156.901ZM162.749 352.486C161.836 352.486 161.049 352.306 160.386 351.946C159.727 351.583 159.219 351.066 158.863 350.395C158.511 349.721 158.335 348.92 158.335 347.992C158.335 347.09 158.513 346.302 158.869 345.628C159.225 344.95 159.727 344.424 160.374 344.049C161.022 343.67 161.785 343.48 162.664 343.48C163.285 343.48 163.853 343.577 164.369 343.77C164.884 343.963 165.329 344.249 165.704 344.628C166.079 345.007 166.371 345.475 166.579 346.032C166.787 346.585 166.891 347.219 166.891 347.935V348.628H159.306V347.014H164.306C164.302 346.719 164.232 346.456 164.096 346.225C163.96 345.994 163.772 345.814 163.533 345.685C163.299 345.552 163.028 345.486 162.721 345.486C162.41 345.486 162.132 345.556 161.886 345.696C161.639 345.833 161.444 346.02 161.3 346.259C161.156 346.494 161.081 346.761 161.073 347.06V348.702C161.073 349.058 161.143 349.371 161.283 349.639C161.424 349.905 161.622 350.111 161.88 350.259C162.138 350.407 162.444 350.48 162.8 350.48C163.047 350.48 163.27 350.446 163.471 350.378C163.672 350.31 163.844 350.21 163.988 350.077C164.132 349.944 164.24 349.782 164.312 349.588L166.863 349.662C166.757 350.234 166.524 350.732 166.164 351.157C165.808 351.577 165.34 351.905 164.761 352.139C164.181 352.371 163.511 352.486 162.749 352.486ZM169.847 352.321L167.575 343.594H170.364L171.54 349.185H171.614L172.876 343.594H175.597L176.893 349.145H176.967L178.109 343.594H180.898L178.62 352.321H175.648L174.285 347.236H174.188L172.825 352.321H169.847ZM185.451 352.321V340.685H190.258C191.129 340.685 191.881 340.855 192.513 341.196C193.15 341.533 193.64 342.005 193.985 342.611C194.33 343.213 194.502 343.914 194.502 344.713C194.502 345.516 194.326 346.219 193.974 346.821C193.625 347.42 193.127 347.884 192.479 348.213C191.832 348.543 191.063 348.708 190.173 348.708H187.207V346.492H189.65C190.074 346.492 190.428 346.418 190.712 346.27C191 346.122 191.218 345.916 191.366 345.651C191.513 345.382 191.587 345.069 191.587 344.713C191.587 344.353 191.513 344.043 191.366 343.782C191.218 343.516 191 343.312 190.712 343.168C190.424 343.024 190.07 342.952 189.65 342.952H188.263V352.321H185.451ZM199.79 352.486C198.874 352.486 198.086 352.299 197.427 351.924C196.772 351.545 196.266 351.018 195.91 350.344C195.558 349.666 195.381 348.88 195.381 347.986C195.381 347.088 195.558 346.302 195.91 345.628C196.266 344.95 196.772 344.424 197.427 344.049C198.086 343.67 198.874 343.48 199.79 343.48C200.707 343.48 201.493 343.67 202.148 344.049C202.808 344.424 203.313 344.95 203.665 345.628C204.022 346.302 204.2 347.088 204.2 347.986C204.2 348.88 204.022 349.666 203.665 350.344C203.313 351.018 202.808 351.545 202.148 351.924C201.493 352.299 200.707 352.486 199.79 352.486ZM199.808 350.389C200.141 350.389 200.423 350.287 200.654 350.083C200.885 349.878 201.061 349.594 201.183 349.23C201.308 348.867 201.37 348.446 201.37 347.969C201.37 347.484 201.308 347.06 201.183 346.696C201.061 346.333 200.885 346.049 200.654 345.844C200.423 345.639 200.141 345.537 199.808 345.537C199.463 345.537 199.171 345.639 198.933 345.844C198.698 346.049 198.518 346.333 198.393 346.696C198.272 347.06 198.211 347.484 198.211 347.969C198.211 348.446 198.272 348.867 198.393 349.23C198.518 349.594 198.698 349.878 198.933 350.083C199.171 350.287 199.463 350.389 199.808 350.389ZM213.242 346.259L210.691 346.327C210.665 346.145 210.593 345.984 210.475 345.844C210.358 345.7 210.204 345.588 210.015 345.509C209.829 345.425 209.613 345.384 209.367 345.384C209.045 345.384 208.771 345.448 208.543 345.577C208.32 345.706 208.21 345.88 208.214 346.1C208.21 346.27 208.278 346.418 208.418 346.543C208.562 346.668 208.818 346.768 209.185 346.844L210.867 347.162C211.738 347.329 212.386 347.605 212.81 347.992C213.238 348.378 213.454 348.889 213.458 349.526C213.454 350.124 213.276 350.645 212.924 351.088C212.576 351.532 212.098 351.876 211.492 352.122C210.886 352.365 210.193 352.486 209.413 352.486C208.166 352.486 207.183 352.23 206.464 351.719C205.748 351.204 205.339 350.514 205.237 349.651L207.981 349.583C208.041 349.901 208.199 350.143 208.452 350.31C208.706 350.477 209.03 350.56 209.424 350.56C209.78 350.56 210.07 350.494 210.293 350.361C210.517 350.228 210.63 350.052 210.634 349.833C210.63 349.636 210.543 349.478 210.373 349.361C210.202 349.24 209.935 349.145 209.572 349.077L208.049 348.787C207.174 348.628 206.522 348.335 206.094 347.907C205.666 347.475 205.454 346.925 205.458 346.259C205.454 345.675 205.61 345.177 205.924 344.764C206.238 344.348 206.685 344.03 207.265 343.81C207.844 343.59 208.528 343.48 209.316 343.48C210.498 343.48 211.43 343.728 212.112 344.225C212.793 344.717 213.17 345.395 213.242 346.259ZM219.752 343.594V345.639H214.246V343.594H219.752ZM215.4 341.503H218.178V349.577C218.178 349.747 218.205 349.886 218.258 349.992C218.315 350.094 218.396 350.168 218.502 350.213C218.608 350.255 218.735 350.276 218.883 350.276C218.989 350.276 219.101 350.266 219.218 350.247C219.339 350.225 219.43 350.206 219.491 350.191L219.911 352.196C219.779 352.234 219.591 352.282 219.349 352.338C219.11 352.395 218.824 352.431 218.491 352.446C217.839 352.477 217.281 352.401 216.815 352.219C216.353 352.033 215.998 351.746 215.752 351.355C215.51 350.965 215.392 350.475 215.4 349.884V341.503ZM221.17 352.321V343.594H223.948V352.321H221.17ZM222.562 342.577C222.172 342.577 221.836 342.448 221.556 342.191C221.276 341.929 221.136 341.615 221.136 341.247C221.136 340.884 221.276 340.573 221.556 340.316C221.836 340.054 222.172 339.924 222.562 339.924C222.956 339.924 223.291 340.054 223.567 340.316C223.848 340.573 223.988 340.884 223.988 341.247C223.988 341.615 223.848 341.929 223.567 342.191C223.291 342.448 222.956 342.577 222.562 342.577ZM229.79 352.486C228.874 352.486 228.086 352.299 227.427 351.924C226.772 351.545 226.266 351.018 225.91 350.344C225.558 349.666 225.381 348.88 225.381 347.986C225.381 347.088 225.558 346.302 225.91 345.628C226.266 344.95 226.772 344.424 227.427 344.049C228.086 343.67 228.874 343.48 229.79 343.48C230.707 343.48 231.493 343.67 232.148 344.049C232.808 344.424 233.313 344.95 233.665 345.628C234.022 346.302 234.2 347.088 234.2 347.986C234.2 348.88 234.022 349.666 233.665 350.344C233.313 351.018 232.808 351.545 232.148 351.924C231.493 352.299 230.707 352.486 229.79 352.486ZM229.808 350.389C230.141 350.389 230.423 350.287 230.654 350.083C230.885 349.878 231.061 349.594 231.183 349.23C231.308 348.867 231.37 348.446 231.37 347.969C231.37 347.484 231.308 347.06 231.183 346.696C231.061 346.333 230.885 346.049 230.654 345.844C230.423 345.639 230.141 345.537 229.808 345.537C229.463 345.537 229.171 345.639 228.933 345.844C228.698 346.049 228.518 346.333 228.393 346.696C228.272 347.06 228.211 347.484 228.211 347.969C228.211 348.446 228.272 348.867 228.393 349.23C228.518 349.594 228.698 349.878 228.933 350.083C229.171 350.287 229.463 350.389 229.808 350.389ZM238.401 347.344V352.321H235.623V343.594H238.265V345.196H238.362C238.555 344.662 238.884 344.244 239.35 343.941C239.816 343.634 240.371 343.48 241.015 343.48C241.629 343.48 242.161 343.619 242.612 343.895C243.066 344.168 243.418 344.55 243.668 345.043C243.922 345.532 244.047 346.103 244.043 346.759V352.321H241.265V347.304C241.269 346.819 241.146 346.441 240.896 346.168C240.649 345.895 240.307 345.759 239.867 345.759C239.576 345.759 239.318 345.823 239.094 345.952C238.875 346.077 238.704 346.257 238.583 346.492C238.466 346.727 238.405 347.011 238.401 347.344Z" fill="#0EA541"/>
<path fill-rule="evenodd" clip-rule="evenodd" d="M161.452 74.6191C159.243 74.6191 157.452 76.41 157.452 78.6191V224.71H145.433C142.095 224.71 140.226 228.558 142.289 231.183L191.94 294.328C193.541 296.364 196.627 296.364 198.228 294.328L247.879 231.183C249.943 228.558 248.073 224.71 244.735 224.71H231.454V78.6191C231.454 76.41 229.663 74.6191 227.454 74.6191H161.452Z" fill="#EB5757"/>
<path d="M178.684 179.239C178.646 178.822 178.478 178.498 178.179 178.267C177.883 178.032 177.461 177.915 176.912 177.915C176.548 177.915 176.245 177.962 176.002 178.057C175.76 178.152 175.578 178.282 175.457 178.449C175.336 178.612 175.273 178.8 175.27 179.012C175.262 179.186 175.296 179.339 175.372 179.472C175.451 179.604 175.565 179.722 175.713 179.824C175.864 179.923 176.046 180.01 176.258 180.086C176.47 180.161 176.709 180.228 176.974 180.284L177.974 180.512C178.55 180.637 179.057 180.803 179.497 181.012C179.94 181.22 180.311 181.468 180.61 181.756C180.913 182.044 181.143 182.375 181.298 182.75C181.453 183.125 181.533 183.546 181.537 184.012C181.533 184.747 181.347 185.377 180.98 185.904C180.612 186.43 180.084 186.834 179.395 187.114C178.709 187.394 177.881 187.534 176.912 187.534C175.938 187.534 175.09 187.389 174.366 187.097C173.643 186.805 173.08 186.362 172.679 185.767C172.277 185.173 172.071 184.421 172.059 183.512H174.752C174.775 183.887 174.876 184.199 175.054 184.449C175.232 184.699 175.476 184.889 175.787 185.017C176.101 185.146 176.465 185.211 176.877 185.211C177.256 185.211 177.578 185.159 177.843 185.057C178.112 184.955 178.319 184.813 178.463 184.631C178.607 184.449 178.681 184.241 178.684 184.006C178.681 183.786 178.612 183.599 178.48 183.443C178.347 183.284 178.143 183.148 177.866 183.034C177.593 182.917 177.245 182.809 176.821 182.711L175.605 182.426C174.597 182.195 173.804 181.822 173.224 181.307C172.645 180.788 172.357 180.087 172.36 179.205C172.357 178.485 172.55 177.854 172.94 177.313C173.33 176.771 173.87 176.349 174.559 176.046C175.249 175.743 176.035 175.591 176.917 175.591C177.819 175.591 178.601 175.745 179.264 176.051C179.931 176.354 180.448 176.781 180.815 177.33C181.182 177.879 181.37 178.515 181.377 179.239H178.684ZM185.735 182.409V187.387H182.957V175.75H185.645V180.262H185.741C185.938 179.724 186.26 179.303 186.707 179C187.158 178.697 187.709 178.546 188.36 178.546C188.974 178.546 189.508 178.682 189.963 178.955C190.417 179.224 190.77 179.604 191.02 180.097C191.273 180.589 191.398 181.165 191.395 181.824V187.387H188.616V182.37C188.62 181.885 188.499 181.506 188.252 181.233C188.006 180.961 187.66 180.824 187.213 180.824C186.921 180.824 186.663 180.889 186.44 181.017C186.22 181.142 186.048 181.322 185.923 181.557C185.802 181.792 185.739 182.076 185.735 182.409ZM197.203 187.551C196.286 187.551 195.498 187.364 194.839 186.989C194.184 186.61 193.678 186.084 193.322 185.409C192.97 184.731 192.794 183.945 192.794 183.051C192.794 182.154 192.97 181.368 193.322 180.693C193.678 180.015 194.184 179.489 194.839 179.114C195.498 178.735 196.286 178.546 197.203 178.546C198.119 178.546 198.905 178.735 199.561 179.114C200.22 179.489 200.726 180.015 201.078 180.693C201.434 181.368 201.612 182.154 201.612 183.051C201.612 183.945 201.434 184.731 201.078 185.409C200.726 186.084 200.22 186.61 199.561 186.989C198.905 187.364 198.119 187.551 197.203 187.551ZM197.22 185.455C197.553 185.455 197.835 185.353 198.066 185.148C198.297 184.943 198.474 184.659 198.595 184.296C198.72 183.932 198.782 183.512 198.782 183.034C198.782 182.55 198.72 182.125 198.595 181.762C198.474 181.398 198.297 181.114 198.066 180.909C197.835 180.705 197.553 180.603 197.22 180.603C196.875 180.603 196.583 180.705 196.345 180.909C196.11 181.114 195.93 181.398 195.805 181.762C195.684 182.125 195.623 182.55 195.623 183.034C195.623 183.512 195.684 183.932 195.805 184.296C195.93 184.659 196.11 184.943 196.345 185.148C196.583 185.353 196.875 185.455 197.22 185.455ZM203.035 187.387V178.659H205.734V180.25H205.825C205.984 179.675 206.243 179.247 206.603 178.966C206.963 178.682 207.382 178.54 207.859 178.54C207.988 178.54 208.12 178.55 208.257 178.568C208.393 178.584 208.52 178.608 208.637 178.642V181.057C208.505 181.012 208.331 180.976 208.115 180.949C207.903 180.923 207.713 180.909 207.547 180.909C207.217 180.909 206.92 180.983 206.654 181.131C206.393 181.275 206.187 181.478 206.035 181.739C205.887 181.997 205.814 182.3 205.814 182.648V187.387H203.035ZM215.102 178.659V180.705H209.596V178.659H215.102ZM210.75 176.568H213.528V184.642C213.528 184.813 213.555 184.951 213.608 185.057C213.664 185.159 213.746 185.233 213.852 185.279C213.958 185.32 214.085 185.341 214.233 185.341C214.339 185.341 214.45 185.332 214.568 185.313C214.689 185.29 214.78 185.271 214.841 185.256L215.261 187.262C215.128 187.3 214.941 187.347 214.699 187.404C214.46 187.461 214.174 187.497 213.841 187.512C213.189 187.542 212.63 187.466 212.164 187.284C211.702 187.099 211.348 186.811 211.102 186.421C210.859 186.031 210.742 185.54 210.75 184.949V176.568Z" fill="white"/>
<path fill-rule="evenodd" clip-rule="evenodd" d="M292.512 0C290.303 0 288.512 1.79086 288.512 4V132.042H275.786C272.448 132.042 270.578 135.89 272.642 138.514L322.292 201.659C323.894 203.696 326.979 203.696 328.581 201.659L378.232 138.514C380.295 135.89 378.426 132.042 375.087 132.042H362.362V4C362.362 1.79086 360.571 0 358.362 0H292.512Z" fill="#EB5757"/>
<path d="M312.377 86.571C312.339 86.1544 312.17 85.8305 311.871 85.5994C311.576 85.3646 311.153 85.2472 310.604 85.2472C310.24 85.2472 309.937 85.2945 309.695 85.3892C309.453 85.4839 309.271 85.6146 309.15 85.7812C309.028 85.9441 308.966 86.1316 308.962 86.3438C308.954 86.518 308.989 86.6714 309.064 86.804C309.144 86.9366 309.257 87.054 309.405 87.1562C309.557 87.2547 309.739 87.3419 309.951 87.4176C310.163 87.4934 310.401 87.5597 310.667 87.6165L311.667 87.8438C312.242 87.9688 312.75 88.1354 313.189 88.3438C313.632 88.5521 314.004 88.8002 314.303 89.0881C314.606 89.3759 314.835 89.7074 314.99 90.0824C315.146 90.4574 315.225 90.8778 315.229 91.3438C315.225 92.0786 315.04 92.7093 314.672 93.2358C314.305 93.7623 313.776 94.1657 313.087 94.446C312.401 94.7263 311.574 94.8665 310.604 94.8665C309.631 94.8665 308.782 94.7206 308.059 94.429C307.335 94.1373 306.773 93.6941 306.371 93.0994C305.97 92.5047 305.763 91.7528 305.752 90.8438H308.445C308.468 91.2188 308.568 91.5312 308.746 91.7812C308.924 92.0312 309.168 92.2206 309.479 92.3494C309.793 92.4782 310.157 92.5426 310.57 92.5426C310.949 92.5426 311.271 92.4915 311.536 92.3892C311.805 92.2869 312.011 92.1449 312.155 91.9631C312.299 91.7812 312.373 91.5729 312.377 91.3381C312.373 91.1184 312.305 90.9309 312.172 90.7756C312.04 90.6165 311.835 90.4801 311.559 90.3665C311.286 90.2491 310.937 90.1411 310.513 90.0426L309.297 89.7585C308.29 89.5275 307.496 89.1544 306.917 88.6392C306.337 88.1203 306.049 87.4195 306.053 86.5369C306.049 85.8172 306.242 85.1866 306.632 84.6449C307.023 84.1032 307.562 83.6809 308.252 83.3778C308.941 83.0748 309.727 82.9233 310.61 82.9233C311.511 82.9233 312.293 83.0767 312.956 83.3835C313.623 83.6866 314.14 84.1127 314.507 84.6619C314.875 85.2112 315.062 85.8475 315.07 86.571H312.377ZM319.428 89.7415V94.7188H316.65V83.0824H319.337V87.5938H319.434C319.631 87.0559 319.953 86.6354 320.4 86.3324C320.85 86.0294 321.401 85.8778 322.053 85.8778C322.667 85.8778 323.201 86.0142 323.655 86.2869C324.11 86.5559 324.462 86.9366 324.712 87.429C324.966 87.9214 325.091 88.4972 325.087 89.1562V94.7188H322.309V89.7017C322.312 89.2169 322.191 88.8381 321.945 88.5653C321.699 88.2926 321.352 88.1562 320.905 88.1562C320.614 88.1562 320.356 88.2206 320.132 88.3494C319.913 88.4744 319.74 88.6544 319.615 88.8892C319.494 89.1241 319.432 89.4081 319.428 89.7415ZM330.895 94.8835C329.979 94.8835 329.191 94.696 328.532 94.321C327.876 93.9422 327.371 93.4157 327.015 92.7415C326.662 92.0634 326.486 91.2775 326.486 90.3835C326.486 89.4858 326.662 88.6998 327.015 88.0256C327.371 87.3475 327.876 86.821 328.532 86.446C329.191 86.0672 329.979 85.8778 330.895 85.8778C331.812 85.8778 332.598 86.0672 333.253 86.446C333.912 86.821 334.418 87.3475 334.77 88.0256C335.126 88.6998 335.304 89.4858 335.304 90.3835C335.304 91.2775 335.126 92.0634 334.77 92.7415C334.418 93.4157 333.912 93.9422 333.253 94.321C332.598 94.696 331.812 94.8835 330.895 94.8835ZM330.912 92.7869C331.246 92.7869 331.528 92.6847 331.759 92.4801C331.99 92.2756 332.166 91.9915 332.287 91.6278C332.412 91.2642 332.475 90.8437 332.475 90.3665C332.475 89.8816 332.412 89.4574 332.287 89.0938C332.166 88.7301 331.99 88.446 331.759 88.2415C331.528 88.0369 331.246 87.9347 330.912 87.9347C330.568 87.9347 330.276 88.0369 330.037 88.2415C329.802 88.446 329.623 88.7301 329.498 89.0938C329.376 89.4574 329.316 89.8816 329.316 90.3665C329.316 90.8437 329.376 91.2642 329.498 91.6278C329.623 91.9915 329.802 92.2756 330.037 92.4801C330.276 92.6847 330.568 92.7869 330.912 92.7869ZM336.728 94.7188V85.9915H339.426V87.5824H339.517C339.676 87.0066 339.936 86.5786 340.296 86.2983C340.656 86.0142 341.074 85.8722 341.551 85.8722C341.68 85.8722 341.813 85.8816 341.949 85.9006C342.086 85.9157 342.212 85.9403 342.33 85.9744V88.3892C342.197 88.3437 342.023 88.3078 341.807 88.2812C341.595 88.2547 341.406 88.2415 341.239 88.2415C340.909 88.2415 340.612 88.3153 340.347 88.4631C340.086 88.607 339.879 88.8097 339.728 89.071C339.58 89.3286 339.506 89.6316 339.506 89.9801V94.7188H336.728ZM348.794 85.9915V88.0369H343.289V85.9915H348.794ZM344.442 83.9006H347.221V91.9744C347.221 92.1449 347.247 92.2831 347.3 92.3892C347.357 92.4915 347.438 92.5653 347.544 92.6108C347.65 92.6525 347.777 92.6733 347.925 92.6733C348.031 92.6733 348.143 92.6638 348.26 92.6449C348.382 92.6222 348.472 92.6032 348.533 92.5881L348.953 94.5938C348.821 94.6316 348.633 94.679 348.391 94.7358C348.152 94.7926 347.866 94.8286 347.533 94.8438C346.882 94.8741 346.323 94.7983 345.857 94.6165C345.395 94.4309 345.041 94.143 344.794 93.7528C344.552 93.3627 344.435 92.8722 344.442 92.2812V83.9006Z" fill="white"/>
<path fill-rule="evenodd" clip-rule="evenodd" d="M318.653 623.519C320.862 623.519 322.653 621.728 322.653 619.519V491.477H335.379C338.717 491.477 340.587 487.628 338.523 485.004L288.873 421.859C287.271 419.822 284.185 419.822 282.584 421.859L232.933 485.004C230.87 487.628 232.739 491.477 236.078 491.477H248.803V619.519C248.803 621.728 250.594 623.519 252.803 623.519H318.653Z" fill="#27AE60"/>
<path d="M273.271 535.754V528.481H275.029V534.326H278.055V535.754H273.271ZM281.511 535.857C280.938 535.857 280.445 535.74 280.033 535.505C279.624 535.268 279.308 534.939 279.085 534.518C278.865 534.094 278.755 533.603 278.755 533.044C278.755 532.483 278.865 531.992 279.085 531.571C279.308 531.147 279.624 530.818 280.033 530.583C280.445 530.347 280.938 530.228 281.511 530.228C282.084 530.228 282.575 530.347 282.984 530.583C283.396 530.818 283.712 531.147 283.933 531.571C284.155 531.992 284.266 532.483 284.266 533.044C284.266 533.603 284.155 534.094 283.933 534.518C283.712 534.939 283.396 535.268 282.984 535.505C282.575 535.74 282.084 535.857 281.511 535.857ZM281.521 534.546C281.73 534.546 281.906 534.482 282.05 534.355C282.195 534.227 282.305 534.049 282.381 533.822C282.459 533.595 282.498 533.332 282.498 533.034C282.498 532.731 282.459 532.465 282.381 532.238C282.305 532.011 282.195 531.833 282.05 531.705C281.906 531.578 281.73 531.514 281.521 531.514C281.306 531.514 281.124 531.578 280.974 531.705C280.828 531.833 280.715 532.011 280.637 532.238C280.561 532.465 280.523 532.731 280.523 533.034C280.523 533.332 280.561 533.595 280.637 533.822C280.715 534.049 280.828 534.227 280.974 534.355C281.124 534.482 281.306 534.546 281.521 534.546ZM286.892 532.643V535.754H285.156V530.299H286.807V531.301H286.868C286.988 530.967 287.194 530.705 287.485 530.516C287.777 530.324 288.123 530.228 288.526 530.228C288.909 530.228 289.242 530.315 289.524 530.487C289.808 530.658 290.028 530.897 290.184 531.205C290.343 531.51 290.421 531.868 290.419 532.277V535.754H288.682V532.618C288.685 532.315 288.608 532.078 288.451 531.908C288.297 531.737 288.083 531.652 287.809 531.652C287.626 531.652 287.465 531.692 287.326 531.773C287.188 531.851 287.082 531.964 287.006 532.11C286.933 532.257 286.895 532.435 286.892 532.643ZM294.036 537.913C293.518 537.913 293.074 537.841 292.705 537.696C292.335 537.552 292.045 537.354 291.835 537.103C291.624 536.852 291.497 536.568 291.455 536.251L293.099 536.159C293.13 536.27 293.186 536.367 293.269 536.45C293.355 536.533 293.465 536.597 293.6 536.642C293.737 536.687 293.898 536.709 294.083 536.709C294.374 536.709 294.614 536.638 294.803 536.496C294.995 536.356 295.091 536.111 295.091 535.761V534.802H295.031C294.962 534.97 294.858 535.12 294.718 535.253C294.579 535.386 294.405 535.49 294.196 535.566C293.99 535.641 293.753 535.679 293.486 535.679C293.088 535.679 292.724 535.587 292.392 535.402C292.063 535.215 291.799 534.926 291.6 534.536C291.404 534.143 291.306 533.637 291.306 533.019C291.306 532.383 291.407 531.858 291.611 531.446C291.815 531.032 292.081 530.725 292.41 530.527C292.741 530.328 293.098 530.228 293.479 530.228C293.765 530.228 294.01 530.278 294.214 530.377C294.42 530.474 294.589 530.6 294.722 530.754C294.854 530.908 294.955 531.067 295.024 531.233H295.073V530.299H296.803V535.775C296.803 536.237 296.687 536.626 296.455 536.943C296.223 537.261 295.898 537.501 295.482 537.664C295.065 537.83 294.583 537.913 294.036 537.913ZM294.09 534.415C294.3 534.415 294.48 534.359 294.629 534.248C294.779 534.137 294.893 533.977 294.974 533.769C295.054 533.56 295.095 533.311 295.095 533.019C295.095 532.723 295.054 532.469 294.974 532.256C294.896 532.04 294.781 531.875 294.629 531.759C294.48 531.643 294.3 531.585 294.09 531.585C293.874 531.585 293.692 531.644 293.543 531.762C293.394 531.881 293.28 532.048 293.202 532.263C293.126 532.476 293.088 532.728 293.088 533.019C293.088 533.311 293.127 533.56 293.205 533.769C293.284 533.977 293.396 534.137 293.543 534.248C293.692 534.359 293.874 534.415 294.09 534.415Z" fill="white"/>
<path fill-rule="evenodd" clip-rule="evenodd" d="M580.018 316.478C577.809 316.478 576.018 318.268 576.018 320.478V448.52H563.293C559.955 448.52 558.085 452.368 560.149 454.992L609.799 518.137C611.401 520.174 614.487 520.174 616.088 518.137L665.739 454.992C667.802 452.368 665.933 448.52 662.594 448.52H649.868V320.478C649.868 318.268 648.077 316.478 645.868 316.478H580.018Z" fill="#8504FD"/>
<rect x="282.095" y="329.054" width="6.54367" height="72.9152" fill="#01A7FA"/>
<rect x="274.617" y="329.054" width="21.5006" height="4.67405" fill="#01A7FA"/>
<rect x="274.617" y="397.295" width="21.5006" height="4.67405" fill="#01A7FA"/>
<path d="M304.699 344.185H316.336V348.992C316.336 349.863 316.165 350.615 315.824 351.248C315.487 351.884 315.016 352.375 314.41 352.719C313.807 353.064 313.107 353.236 312.307 353.236C311.504 353.236 310.802 353.06 310.199 352.708C309.601 352.359 309.137 351.861 308.807 351.214C308.478 350.566 308.313 349.797 308.313 348.907V345.941H310.529V348.384C310.529 348.808 310.603 349.162 310.751 349.446C310.898 349.734 311.105 349.952 311.37 350.1C311.639 350.248 311.951 350.321 312.307 350.321C312.667 350.321 312.978 350.248 313.239 350.1C313.504 349.952 313.709 349.734 313.853 349.446C313.997 349.159 314.069 348.804 314.069 348.384V346.998H304.699V344.185ZM304.699 354.623H313.427V357.321H311.836V357.412C312.412 357.571 312.84 357.831 313.12 358.191C313.404 358.551 313.546 358.969 313.546 359.446C313.546 359.575 313.537 359.708 313.518 359.844C313.502 359.981 313.478 360.107 313.444 360.225H311.029C311.074 360.092 311.11 359.918 311.137 359.702C311.163 359.49 311.177 359.301 311.177 359.134C311.177 358.804 311.103 358.507 310.955 358.242C310.811 357.981 310.609 357.774 310.347 357.623C310.09 357.475 309.787 357.401 309.438 357.401H304.699V354.623ZM304.535 364.978C304.535 364.061 304.722 363.273 305.097 362.614C305.476 361.959 306.002 361.453 306.677 361.097C307.355 360.745 308.141 360.569 309.035 360.569C309.932 360.569 310.718 360.745 311.393 361.097C312.071 361.453 312.597 361.959 312.972 362.614C313.351 363.273 313.54 364.061 313.54 364.978C313.54 365.894 313.351 366.68 312.972 367.336C312.597 367.995 312.071 368.5 311.393 368.853C310.718 369.209 309.932 369.387 309.035 369.387C308.141 369.387 307.355 369.209 306.677 368.853C306.002 368.5 305.476 367.995 305.097 367.336C304.722 366.68 304.535 365.894 304.535 364.978ZM306.631 364.995C306.631 365.328 306.734 365.61 306.938 365.841C307.143 366.072 307.427 366.249 307.79 366.37C308.154 366.495 308.574 366.557 309.052 366.557C309.537 366.557 309.961 366.495 310.324 366.37C310.688 366.249 310.972 366.072 311.177 365.841C311.381 365.61 311.484 365.328 311.484 364.995C311.484 364.65 311.381 364.358 311.177 364.12C310.972 363.885 310.688 363.705 310.324 363.58C309.961 363.459 309.537 363.398 309.052 363.398C308.574 363.398 308.154 363.459 307.79 363.58C307.427 363.705 307.143 363.885 306.938 364.12C306.734 364.358 306.631 364.65 306.631 364.995ZM313.427 375.77H311.381V370.157H313.427V375.77ZM304.699 371.327H313.87C314.544 371.327 315.103 371.454 315.546 371.708C315.993 371.962 316.326 372.314 316.546 372.765C316.77 373.215 316.881 373.736 316.881 374.327C316.881 374.714 316.851 375.077 316.79 375.418C316.734 375.763 316.682 376.018 316.637 376.185L314.603 375.742C314.637 375.64 314.665 375.515 314.688 375.367C314.711 375.223 314.722 375.087 314.722 374.958C314.722 374.632 314.65 374.409 314.506 374.287C314.362 374.166 314.165 374.106 313.915 374.106H304.699V371.327ZM304.699 377.107H313.427V379.885H304.699V377.107ZM314.444 378.499C314.444 378.109 314.573 377.774 314.83 377.493C315.092 377.213 315.406 377.073 315.773 377.073C316.137 377.073 316.448 377.213 316.705 377.493C316.967 377.774 317.097 378.109 317.097 378.499C317.097 378.893 316.967 379.228 316.705 379.505C316.448 379.785 316.137 379.925 315.773 379.925C315.406 379.925 315.092 379.785 314.83 379.505C314.573 379.228 314.444 378.893 314.444 378.499ZM313.427 386.58H311.381V381.074H313.427V386.58ZM315.518 382.228V385.006H307.444C307.273 385.006 307.135 385.033 307.029 385.086C306.927 385.142 306.853 385.224 306.807 385.33C306.766 385.436 306.745 385.563 306.745 385.711C306.745 385.817 306.754 385.928 306.773 386.046C306.796 386.167 306.815 386.258 306.83 386.319L304.824 386.739C304.787 386.607 304.739 386.419 304.682 386.177C304.626 385.938 304.59 385.652 304.574 385.319C304.544 384.667 304.62 384.108 304.802 383.642C304.987 383.18 305.275 382.826 305.665 382.58C306.056 382.338 306.546 382.22 307.137 382.228H315.518Z" fill="white"/>
<rect x="322.292" y="220.615" width="6.54367" height="72.9152" fill="#01A7FA"/>
<rect x="314.813" y="220.615" width="21.5006" height="4.67405" fill="#01A7FA"/>
<rect x="314.814" y="288.856" width="21.5006" height="4.67405" fill="#01A7FA"/>
<path d="M348.017 232.89H359.654V237.697C359.654 238.568 359.483 239.32 359.142 239.952C358.805 240.589 358.334 241.079 357.728 241.424C357.125 241.768 356.425 241.941 355.625 241.941C354.822 241.941 354.12 241.765 353.517 241.412C352.919 241.064 352.455 240.566 352.125 239.918C351.796 239.27 351.631 238.501 351.631 237.611V234.645H353.847V237.089C353.847 237.513 353.921 237.867 354.068 238.151C354.216 238.439 354.423 238.657 354.688 238.804C354.957 238.952 355.269 239.026 355.625 239.026C355.985 239.026 356.296 238.952 356.557 238.804C356.822 238.657 357.027 238.439 357.171 238.151C357.315 237.863 357.387 237.509 357.387 237.089V235.702H348.017V232.89ZM348.017 243.327H356.745V246.026H355.154V246.117C355.729 246.276 356.157 246.536 356.438 246.895C356.722 247.255 356.864 247.674 356.864 248.151C356.864 248.28 356.854 248.412 356.836 248.549C356.82 248.685 356.796 248.812 356.762 248.929H354.347C354.392 248.797 354.428 248.623 354.455 248.407C354.481 248.195 354.495 248.005 354.495 247.839C354.495 247.509 354.421 247.212 354.273 246.947C354.129 246.685 353.926 246.479 353.665 246.327C353.407 246.179 353.104 246.106 352.756 246.106H348.017V243.327ZM347.853 253.682C347.853 252.766 348.04 251.978 348.415 251.319C348.794 250.663 349.32 250.158 349.995 249.802C350.673 249.449 351.459 249.273 352.353 249.273C353.25 249.273 354.036 249.449 354.711 249.802C355.389 250.158 355.915 250.663 356.29 251.319C356.669 251.978 356.858 252.766 356.858 253.682C356.858 254.599 356.669 255.385 356.29 256.04C355.915 256.699 355.389 257.205 354.711 257.557C354.036 257.913 353.25 258.091 352.353 258.091C351.459 258.091 350.673 257.913 349.995 257.557C349.32 257.205 348.794 256.699 348.415 256.04C348.04 255.385 347.853 254.599 347.853 253.682ZM349.949 253.699C349.949 254.033 350.051 254.315 350.256 254.546C350.461 254.777 350.745 254.953 351.108 255.074C351.472 255.199 351.892 255.262 352.37 255.262C352.854 255.262 353.279 255.199 353.642 255.074C354.006 254.953 354.29 254.777 354.495 254.546C354.699 254.315 354.801 254.033 354.801 253.699C354.801 253.355 354.699 253.063 354.495 252.824C354.29 252.59 354.006 252.41 353.642 252.285C353.279 252.163 352.854 252.103 352.37 252.103C351.892 252.103 351.472 252.163 351.108 252.285C350.745 252.41 350.461 252.59 350.256 252.824C350.051 253.063 349.949 253.355 349.949 253.699ZM356.745 264.475H354.699V258.861H356.745V264.475ZM348.017 260.032H357.188C357.862 260.032 358.421 260.159 358.864 260.412C359.311 260.666 359.644 261.018 359.864 261.469C360.087 261.92 360.199 262.441 360.199 263.032C360.199 263.418 360.169 263.782 360.108 264.123C360.051 264.467 360 264.723 359.955 264.89L357.921 264.447C357.955 264.344 357.983 264.219 358.006 264.072C358.029 263.928 358.04 263.791 358.04 263.662C358.04 263.337 357.968 263.113 357.824 262.992C357.68 262.871 357.483 262.81 357.233 262.81H348.017V260.032ZM348.017 265.812H356.745V268.59H348.017V265.812ZM357.762 267.204C357.762 266.813 357.89 266.478 358.148 266.198C358.409 265.918 358.724 265.777 359.091 265.777C359.455 265.777 359.765 265.918 360.023 266.198C360.284 266.478 360.415 266.813 360.415 267.204C360.415 267.598 360.284 267.933 360.023 268.209C359.765 268.49 359.455 268.63 359.091 268.63C358.724 268.63 358.409 268.49 358.148 268.209C357.89 267.933 357.762 267.598 357.762 267.204ZM356.745 275.285H354.699V269.779H356.745V275.285ZM358.836 270.932V273.711H350.762C350.591 273.711 350.453 273.737 350.347 273.79C350.245 273.847 350.171 273.929 350.125 274.035C350.084 274.141 350.063 274.268 350.063 274.415C350.063 274.521 350.072 274.633 350.091 274.75C350.114 274.872 350.133 274.963 350.148 275.023L348.142 275.444C348.104 275.311 348.057 275.124 348 274.881C347.943 274.643 347.907 274.357 347.892 274.023C347.862 273.372 347.938 272.813 348.12 272.347C348.305 271.885 348.593 271.531 348.983 271.285C349.373 271.042 349.864 270.925 350.455 270.932H358.836Z" fill="white"/>
<rect x="509" y="480.321" width="72" height="171" transform="rotate(-180 509 480.321)" fill="#27AE60"/>
<rect x="508" y="308.321" width="70" height="87" transform="rotate(-180 508 308.321)" stroke="#EB5757" stroke-width="2" stroke-dasharray="4 4"/>
<path d="M454.138 394.845V383.208H456.95V392.561H461.791V394.845H454.138ZM467.321 395.009C466.404 395.009 465.617 394.822 464.957 394.447C464.302 394.068 463.796 393.542 463.44 392.867C463.088 392.189 462.912 391.403 462.912 390.509C462.912 389.612 463.088 388.826 463.44 388.152C463.796 387.474 464.302 386.947 464.957 386.572C465.617 386.193 466.404 386.004 467.321 386.004C468.238 386.004 469.024 386.193 469.679 386.572C470.338 386.947 470.844 387.474 471.196 388.152C471.552 388.826 471.73 389.612 471.73 390.509C471.73 391.403 471.552 392.189 471.196 392.867C470.844 393.542 470.338 394.068 469.679 394.447C469.024 394.822 468.238 395.009 467.321 395.009ZM467.338 392.913C467.671 392.913 467.954 392.811 468.185 392.606C468.416 392.402 468.592 392.117 468.713 391.754C468.838 391.39 468.901 390.97 468.901 390.492C468.901 390.008 468.838 389.583 468.713 389.22C468.592 388.856 468.416 388.572 468.185 388.367C467.954 388.163 467.671 388.061 467.338 388.061C466.993 388.061 466.702 388.163 466.463 388.367C466.228 388.572 466.048 388.856 465.923 389.22C465.802 389.583 465.742 390.008 465.742 390.492C465.742 390.97 465.802 391.39 465.923 391.754C466.048 392.117 466.228 392.402 466.463 392.606C466.702 392.811 466.993 392.913 467.338 392.913ZM475.932 389.867V394.845H473.153V386.117H475.795V387.72H475.892C476.085 387.186 476.415 386.767 476.881 386.464C477.347 386.157 477.902 386.004 478.545 386.004C479.159 386.004 479.691 386.142 480.142 386.419C480.597 386.691 480.949 387.074 481.199 387.566C481.453 388.055 481.578 388.627 481.574 389.282V394.845H478.795V389.828C478.799 389.343 478.676 388.964 478.426 388.691C478.18 388.419 477.837 388.282 477.398 388.282C477.106 388.282 476.849 388.347 476.625 388.475C476.405 388.6 476.235 388.78 476.114 389.015C475.996 389.25 475.936 389.534 475.932 389.867ZM487.362 398.299C486.533 398.299 485.822 398.184 485.232 397.953C484.641 397.722 484.177 397.405 483.84 397.004C483.502 396.602 483.3 396.148 483.232 395.64L485.862 395.492C485.911 395.67 486.002 395.826 486.135 395.958C486.271 396.091 486.447 396.193 486.663 396.265C486.883 396.337 487.141 396.373 487.436 396.373C487.902 396.373 488.286 396.259 488.59 396.032C488.896 395.809 489.05 395.417 489.05 394.856V393.322H488.953C488.843 393.591 488.677 393.831 488.453 394.044C488.23 394.256 487.951 394.422 487.618 394.544C487.288 394.665 486.91 394.725 486.482 394.725C485.845 394.725 485.262 394.578 484.732 394.282C484.205 393.983 483.783 393.521 483.465 392.896C483.15 392.267 482.993 391.458 482.993 390.47C482.993 389.451 483.156 388.612 483.482 387.953C483.807 387.29 484.233 386.799 484.76 386.481C485.29 386.163 485.86 386.004 486.47 386.004C486.929 386.004 487.321 386.083 487.646 386.242C487.976 386.398 488.247 386.599 488.459 386.845C488.671 387.091 488.832 387.347 488.942 387.612H489.021V386.117H491.788V394.879C491.788 395.617 491.603 396.241 491.232 396.748C490.86 397.256 490.341 397.64 489.675 397.902C489.008 398.167 488.237 398.299 487.362 398.299ZM487.447 392.703C487.785 392.703 488.072 392.614 488.311 392.436C488.55 392.258 488.733 392.002 488.862 391.669C488.991 391.335 489.055 390.936 489.055 390.47C489.055 389.996 488.991 389.589 488.862 389.248C488.737 388.903 488.554 388.638 488.311 388.453C488.072 388.267 487.785 388.174 487.447 388.174C487.103 388.174 486.811 388.269 486.572 388.458C486.334 388.648 486.152 388.915 486.027 389.259C485.906 389.6 485.845 390.004 485.845 390.47C485.845 390.936 485.908 391.335 486.033 391.669C486.158 392.002 486.338 392.258 486.572 392.436C486.811 392.614 487.103 392.703 487.447 392.703Z" fill="white"/>
<path d="M465.971 159.056L468.453 155.899L469.239 156.517L470.481 154.938C470.776 154.562 471.135 154.282 471.526 154.092L471.09 153.193C472.19 152.659 473.488 152.659 474.588 153.193L474.152 154.092C474.543 154.282 474.902 154.562 475.197 154.938L476.438 156.517L477.225 155.899L479.707 159.056L478.921 159.674L481.404 162.831L482.19 162.213L484.672 165.371L483.886 165.989L486.369 169.146L487.155 168.528L489.637 171.685L488.851 172.303L491.334 175.46L492.12 174.842L494.602 178L493.816 178.618L496.299 181.775L497.085 181.157L499.567 184.314L498.781 184.932L501.264 188.089L502.05 187.471L504.532 190.629L503.746 191.247L506.229 194.404L507.015 193.786L509.497 196.943L508.711 197.561L511.194 200.718L511.98 200.1L514.463 203.258L513.676 203.876L516.159 207.033L516.945 206.415L519.428 209.572L518.641 210.19L521.124 213.347L521.91 212.729L524.393 215.887L523.607 216.505L524.848 218.083C525.228 218.567 525.426 219.094 525.481 219.614L526.475 219.509C526.635 221.019 525.901 222.528 524.616 223.336L524.084 222.489C523.641 222.768 523.105 222.938 522.49 222.938H520.421V223.938H516.283V222.938L512.146 222.938V223.938H508.008V222.938H503.871V223.938H499.733V222.938H495.595V223.938H491.458V222.938H487.32V223.938H483.183V222.938H479.045V223.938H474.908V222.938H470.77V223.938H466.633V222.938H462.495V223.938H458.358V222.938L454.22 222.938V223.938H450.082V222.938H445.945V223.938H441.807V222.938H437.67V223.938L433.532 223.938V222.938H429.395V223.938H425.257V222.938H423.188C422.573 222.938 422.037 222.768 421.594 222.489L421.061 223.336C419.777 222.528 419.043 221.019 419.202 219.509L420.197 219.614C420.252 219.094 420.45 218.567 420.83 218.083L422.071 216.505L421.285 215.887L423.768 212.729L424.554 213.347L427.036 210.19L426.25 209.572L428.733 206.415L429.519 207.033L432.001 203.876L431.215 203.258L433.698 200.1L434.484 200.718L436.966 197.561L436.18 196.943L438.663 193.786L439.449 194.404L441.932 191.247L441.145 190.629L443.628 187.471L444.414 188.089L446.897 184.932L446.111 184.314L448.593 181.157L449.379 181.775L451.862 178.618L451.076 178L453.558 174.842L454.344 175.46L456.827 172.303L456.041 171.685L458.523 168.528L459.309 169.146L461.792 165.989L461.006 165.371L463.488 162.213L464.274 162.831L466.757 159.674L465.971 159.056Z" stroke="#EB5757" stroke-width="2" stroke-dasharray="4 4"/>
<path d="M456.912 261.281V249.645H459.724V258.997H464.565V261.281H456.912ZM470.095 261.446C469.178 261.446 468.39 261.259 467.731 260.884C467.076 260.505 466.57 259.978 466.214 259.304C465.862 258.626 465.686 257.84 465.686 256.946C465.686 256.048 465.862 255.262 466.214 254.588C466.57 253.91 467.076 253.384 467.731 253.009C468.39 252.63 469.178 252.44 470.095 252.44C471.011 252.44 471.797 252.63 472.453 253.009C473.112 253.384 473.617 253.91 473.97 254.588C474.326 255.262 474.504 256.048 474.504 256.946C474.504 257.84 474.326 258.626 473.97 259.304C473.617 259.978 473.112 260.505 472.453 260.884C471.797 261.259 471.011 261.446 470.095 261.446ZM470.112 259.349C470.445 259.349 470.727 259.247 470.958 259.043C471.189 258.838 471.366 258.554 471.487 258.19C471.612 257.827 471.674 257.406 471.674 256.929C471.674 256.444 471.612 256.02 471.487 255.656C471.366 255.293 471.189 255.009 470.958 254.804C470.727 254.599 470.445 254.497 470.112 254.497C469.767 254.497 469.475 254.599 469.237 254.804C469.002 255.009 468.822 255.293 468.697 255.656C468.576 256.02 468.515 256.444 468.515 256.929C468.515 257.406 468.576 257.827 468.697 258.19C468.822 258.554 469.002 258.838 469.237 259.043C469.475 259.247 469.767 259.349 470.112 259.349ZM483.546 255.219L480.995 255.287C480.969 255.105 480.897 254.944 480.779 254.804C480.662 254.66 480.509 254.548 480.319 254.469C480.134 254.385 479.918 254.344 479.671 254.344C479.35 254.344 479.075 254.408 478.848 254.537C478.624 254.666 478.514 254.84 478.518 255.06C478.514 255.23 478.582 255.378 478.723 255.503C478.867 255.628 479.122 255.728 479.49 255.804L481.171 256.122C482.043 256.289 482.69 256.565 483.115 256.952C483.543 257.338 483.759 257.849 483.762 258.486C483.759 259.084 483.581 259.605 483.228 260.048C482.88 260.491 482.403 260.836 481.796 261.082C481.19 261.325 480.497 261.446 479.717 261.446C478.471 261.446 477.488 261.19 476.768 260.679C476.052 260.164 475.643 259.474 475.541 258.611L478.285 258.543C478.346 258.861 478.503 259.103 478.757 259.27C479.01 259.437 479.334 259.52 479.728 259.52C480.084 259.52 480.374 259.454 480.598 259.321C480.821 259.188 480.935 259.012 480.939 258.793C480.935 258.596 480.848 258.438 480.677 258.321C480.507 258.2 480.24 258.105 479.876 258.037L478.353 257.747C477.478 257.588 476.827 257.295 476.399 256.866C475.971 256.435 475.759 255.885 475.762 255.219C475.759 254.635 475.914 254.137 476.228 253.724C476.543 253.308 476.99 252.99 477.569 252.77C478.149 252.55 478.832 252.44 479.62 252.44C480.802 252.44 481.734 252.688 482.416 253.185C483.098 253.677 483.475 254.355 483.546 255.219ZM490.056 252.554V254.599H484.551V252.554H490.056ZM485.704 250.463H488.483V258.537C488.483 258.707 488.509 258.846 488.562 258.952C488.619 259.054 488.7 259.128 488.806 259.173C488.912 259.215 489.039 259.236 489.187 259.236C489.293 259.236 489.405 259.226 489.522 259.207C489.644 259.185 489.734 259.166 489.795 259.151L490.216 261.156C490.083 261.194 489.895 261.241 489.653 261.298C489.414 261.355 489.128 261.391 488.795 261.406C488.144 261.437 487.585 261.361 487.119 261.179C486.657 260.993 486.303 260.705 486.056 260.315C485.814 259.925 485.697 259.435 485.704 258.844V250.463Z" fill="white"/>
<path d="M568.593 553.677V542.041H571.406V551.393H576.246V553.677H568.593ZM577.702 553.677V544.95H580.481V553.677H577.702ZM579.094 543.933C578.704 543.933 578.369 543.804 578.089 543.547C577.808 543.285 577.668 542.971 577.668 542.603C577.668 542.24 577.808 541.929 578.089 541.672C578.369 541.41 578.704 541.28 579.094 541.28C579.488 541.28 579.824 541.41 580.1 541.672C580.38 541.929 580.521 542.24 580.521 542.603C580.521 542.971 580.38 543.285 580.1 543.547C579.824 543.804 579.488 543.933 579.094 543.933ZM587.948 556.95V552.262H587.891C587.774 552.531 587.607 552.783 587.391 553.018C587.175 553.253 586.905 553.442 586.579 553.586C586.257 553.73 585.876 553.802 585.437 553.802C584.793 553.802 584.208 553.636 583.681 553.302C583.155 552.969 582.734 552.469 582.42 551.802C582.105 551.136 581.948 550.308 581.948 549.319C581.948 548.293 582.111 547.448 582.437 546.785C582.763 546.122 583.189 545.632 583.715 545.314C584.246 544.995 584.816 544.836 585.425 544.836C585.884 544.836 586.276 544.916 586.602 545.075C586.927 545.23 587.196 545.431 587.408 545.677C587.621 545.923 587.782 546.179 587.891 546.444H587.977V544.95H590.727V556.95H587.948ZM586.403 551.637C586.74 551.637 587.028 551.543 587.266 551.353C587.505 551.16 587.689 550.889 587.817 550.541C587.946 550.192 588.011 549.783 588.011 549.314C588.011 548.836 587.946 548.425 587.817 548.081C587.692 547.736 587.509 547.471 587.266 547.285C587.028 547.1 586.74 547.007 586.403 547.007C586.058 547.007 585.766 547.101 585.528 547.291C585.289 547.48 585.107 547.747 584.982 548.092C584.861 548.437 584.8 548.844 584.8 549.314C584.8 549.783 584.863 550.192 584.988 550.541C585.113 550.889 585.293 551.16 585.528 551.353C585.766 551.543 586.058 551.637 586.403 551.637ZM598.114 549.91V544.95H600.887V553.677H598.239V552.052H598.148C597.955 552.586 597.626 553.011 597.16 553.325C596.698 553.636 596.139 553.791 595.484 553.791C594.889 553.791 594.366 553.655 593.916 553.382C593.465 553.109 593.114 552.728 592.864 552.24C592.614 551.747 592.487 551.172 592.484 550.512V544.95H595.262V549.967C595.266 550.441 595.391 550.814 595.637 551.086C595.883 551.359 596.219 551.495 596.643 551.495C596.919 551.495 597.167 551.435 597.387 551.314C597.611 551.189 597.787 551.009 597.916 550.774C598.048 550.535 598.114 550.247 598.114 549.91ZM602.656 553.677V544.95H605.434V553.677H602.656ZM604.048 543.933C603.657 543.933 603.322 543.804 603.042 543.547C602.762 543.285 602.621 542.971 602.621 542.603C602.621 542.24 602.762 541.929 603.042 541.672C603.322 541.41 603.657 541.28 604.048 541.28C604.442 541.28 604.777 541.41 605.053 541.672C605.334 541.929 605.474 542.24 605.474 542.603C605.474 542.971 605.334 543.285 605.053 543.547C604.777 543.804 604.442 543.933 604.048 543.933ZM610.39 553.802C609.746 553.802 609.161 553.636 608.634 553.302C608.108 552.969 607.687 552.469 607.373 551.802C607.058 551.136 606.901 550.308 606.901 549.319C606.901 548.293 607.064 547.448 607.39 546.785C607.716 546.122 608.142 545.632 608.668 545.314C609.199 544.995 609.769 544.836 610.379 544.836C610.837 544.836 611.229 544.916 611.555 545.075C611.88 545.23 612.149 545.431 612.362 545.677C612.574 545.923 612.735 546.179 612.844 546.444H612.901V542.041H615.68V553.677H612.93V552.262H612.844C612.727 552.531 612.56 552.783 612.344 553.018C612.129 553.253 611.858 553.442 611.532 553.586C611.21 553.73 610.829 553.802 610.39 553.802ZM611.356 551.637C611.693 551.637 611.981 551.543 612.219 551.353C612.458 551.16 612.642 550.889 612.771 550.541C612.899 550.192 612.964 549.783 612.964 549.314C612.964 548.836 612.899 548.425 612.771 548.081C612.646 547.736 612.462 547.471 612.219 547.285C611.981 547.1 611.693 547.007 611.356 547.007C611.011 547.007 610.719 547.101 610.481 547.291C610.242 547.48 610.06 547.747 609.935 548.092C609.814 548.437 609.754 548.844 609.754 549.314C609.754 549.783 609.816 550.192 609.941 550.541C610.066 550.889 610.246 551.16 610.481 551.353C610.719 551.543 611.011 551.637 611.356 551.637ZM619.897 553.825C619.34 553.825 618.846 553.732 618.414 553.547C617.986 553.357 617.647 553.073 617.397 552.694C617.151 552.312 617.028 551.833 617.028 551.257C617.028 550.772 617.113 550.363 617.283 550.03C617.454 549.696 617.689 549.425 617.988 549.217C618.287 549.009 618.632 548.851 619.022 548.745C619.412 548.636 619.829 548.562 620.272 548.524C620.768 548.478 621.168 548.431 621.471 548.382C621.774 548.329 621.994 548.255 622.13 548.16C622.27 548.062 622.34 547.923 622.34 547.745V547.717C622.34 547.425 622.24 547.2 622.039 547.041C621.838 546.882 621.567 546.802 621.227 546.802C620.859 546.802 620.564 546.882 620.34 547.041C620.117 547.2 619.975 547.42 619.914 547.7L617.352 547.609C617.427 547.079 617.622 546.605 617.937 546.189C618.255 545.768 618.691 545.439 619.244 545.2C619.8 544.958 620.469 544.836 621.249 544.836C621.806 544.836 622.319 544.903 622.789 545.035C623.259 545.164 623.668 545.353 624.016 545.603C624.365 545.85 624.634 546.153 624.823 546.512C625.016 546.872 625.113 547.283 625.113 547.745V553.677H622.499V552.461H622.431C622.276 552.757 622.077 553.007 621.835 553.211C621.596 553.416 621.314 553.569 620.988 553.672C620.666 553.774 620.302 553.825 619.897 553.825ZM620.755 552.007C621.054 552.007 621.323 551.946 621.562 551.825C621.804 551.704 621.997 551.537 622.141 551.325C622.285 551.109 622.357 550.859 622.357 550.575V549.745C622.278 549.787 622.181 549.825 622.067 549.859C621.958 549.893 621.836 549.925 621.704 549.956C621.571 549.986 621.435 550.012 621.295 550.035C621.155 550.058 621.02 550.079 620.891 550.098C620.63 550.139 620.407 550.204 620.221 550.291C620.039 550.378 619.899 550.492 619.8 550.632C619.706 550.768 619.658 550.931 619.658 551.12C619.658 551.408 619.761 551.628 619.965 551.78C620.174 551.931 620.437 552.007 620.755 552.007ZM631.738 544.95V546.995H626.232V544.95H631.738ZM627.386 542.859H630.164V550.933C630.164 551.103 630.191 551.242 630.244 551.348C630.3 551.45 630.382 551.524 630.488 551.569C630.594 551.611 630.721 551.632 630.869 551.632C630.975 551.632 631.086 551.622 631.204 551.603C631.325 551.581 631.416 551.562 631.477 551.547L631.897 553.552C631.764 553.59 631.577 553.637 631.335 553.694C631.096 553.751 630.81 553.787 630.477 553.802C629.825 553.833 629.266 553.757 628.8 553.575C628.338 553.389 627.984 553.101 627.738 552.711C627.496 552.321 627.378 551.831 627.386 551.24V542.859ZM633.156 553.677V544.95H635.934V553.677H633.156ZM634.548 543.933C634.157 543.933 633.822 543.804 633.542 543.547C633.262 543.285 633.121 542.971 633.121 542.603C633.121 542.24 633.262 541.929 633.542 541.672C633.822 541.41 634.157 541.28 634.548 541.28C634.942 541.28 635.277 541.41 635.553 541.672C635.834 541.929 635.974 542.24 635.974 542.603C635.974 542.971 635.834 543.285 635.553 543.547C635.277 543.804 634.942 543.933 634.548 543.933ZM641.776 553.842C640.86 553.842 640.072 553.655 639.413 553.28C638.757 552.901 638.252 552.374 637.896 551.7C637.543 551.022 637.367 550.236 637.367 549.342C637.367 548.444 637.543 547.658 637.896 546.984C638.252 546.306 638.757 545.78 639.413 545.405C640.072 545.026 640.86 544.836 641.776 544.836C642.693 544.836 643.479 545.026 644.134 545.405C644.793 545.78 645.299 546.306 645.651 546.984C646.007 547.658 646.185 548.444 646.185 549.342C646.185 550.236 646.007 551.022 645.651 551.7C645.299 552.374 644.793 552.901 644.134 553.28C643.479 553.655 642.693 553.842 641.776 553.842ZM641.793 551.745C642.127 551.745 642.409 551.643 642.64 551.439C642.871 551.234 643.047 550.95 643.168 550.586C643.293 550.223 643.356 549.802 643.356 549.325C643.356 548.84 643.293 548.416 643.168 548.052C643.047 547.689 642.871 547.405 642.64 547.2C642.409 546.995 642.127 546.893 641.793 546.893C641.449 546.893 641.157 546.995 640.918 547.2C640.683 547.405 640.504 547.689 640.379 548.052C640.257 548.416 640.197 548.84 640.197 549.325C640.197 549.802 640.257 550.223 640.379 550.586C640.504 550.95 640.683 551.234 640.918 551.439C641.157 551.643 641.449 551.745 641.793 551.745ZM650.387 548.7V553.677H647.609V544.95H650.251V546.552H650.347C650.54 546.018 650.87 545.6 651.336 545.297C651.802 544.99 652.357 544.836 653.001 544.836C653.614 544.836 654.147 544.975 654.597 545.251C655.052 545.524 655.404 545.906 655.654 546.399C655.908 546.887 656.033 547.459 656.029 548.115V553.677H653.251V548.66C653.255 548.175 653.131 547.797 652.881 547.524C652.635 547.251 652.292 547.115 651.853 547.115C651.561 547.115 651.304 547.179 651.08 547.308C650.861 547.433 650.69 547.613 650.569 547.848C650.451 548.083 650.391 548.367 650.387 548.7Z" fill="white"/>
<path d="M566.185 209.685H569.668L572.623 216.889H572.759L575.714 209.685H579.197V221.321H576.458V214.174H576.362L573.566 221.247H571.816L569.021 214.134H568.924V221.321H566.185V209.685ZM583.411 221.469C582.854 221.469 582.36 221.376 581.928 221.191C581.5 221.001 581.161 220.717 580.911 220.338C580.665 219.956 580.542 219.477 580.542 218.901C580.542 218.416 580.627 218.007 580.798 217.674C580.968 217.34 581.203 217.069 581.502 216.861C581.801 216.653 582.146 216.496 582.536 216.389C582.926 216.28 583.343 216.206 583.786 216.168C584.282 216.122 584.682 216.075 584.985 216.026C585.288 215.973 585.508 215.899 585.644 215.804C585.784 215.706 585.854 215.568 585.854 215.389V215.361C585.854 215.069 585.754 214.844 585.553 214.685C585.353 214.526 585.082 214.446 584.741 214.446C584.373 214.446 584.078 214.526 583.854 214.685C583.631 214.844 583.489 215.064 583.428 215.344L580.866 215.253C580.942 214.723 581.137 214.249 581.451 213.833C581.769 213.412 582.205 213.083 582.758 212.844C583.315 212.602 583.983 212.48 584.763 212.48C585.32 212.48 585.834 212.547 586.303 212.679C586.773 212.808 587.182 212.997 587.531 213.247C587.879 213.494 588.148 213.797 588.337 214.157C588.531 214.516 588.627 214.927 588.627 215.389V221.321H586.013V220.105H585.945C585.79 220.401 585.591 220.651 585.349 220.855C585.11 221.06 584.828 221.213 584.502 221.316C584.18 221.418 583.817 221.469 583.411 221.469ZM584.269 219.651C584.568 219.651 584.837 219.59 585.076 219.469C585.318 219.348 585.512 219.181 585.656 218.969C585.799 218.753 585.871 218.503 585.871 218.219V217.389C585.792 217.431 585.695 217.469 585.582 217.503C585.472 217.537 585.351 217.569 585.218 217.6C585.085 217.63 584.949 217.657 584.809 217.679C584.669 217.702 584.534 217.723 584.406 217.742C584.144 217.783 583.921 217.848 583.735 217.935C583.553 218.022 583.413 218.136 583.315 218.276C583.22 218.412 583.173 218.575 583.173 218.764C583.173 219.052 583.275 219.272 583.479 219.424C583.688 219.575 583.951 219.651 584.269 219.651ZM590.326 221.321V212.594H593.025V214.185H593.116C593.275 213.609 593.534 213.181 593.894 212.901C594.254 212.617 594.673 212.475 595.15 212.475C595.279 212.475 595.411 212.484 595.548 212.503C595.684 212.518 595.811 212.543 595.928 212.577V214.992C595.796 214.946 595.621 214.91 595.406 214.884C595.193 214.857 595.004 214.844 594.837 214.844C594.508 214.844 594.21 214.918 593.945 215.066C593.684 215.21 593.478 215.412 593.326 215.674C593.178 215.931 593.104 216.234 593.104 216.583V221.321H590.326ZM599.566 219.032L599.577 215.719H599.964L602.418 212.594H605.566L601.918 217.071H601.185L599.566 219.032ZM597.06 221.321V209.685H599.839V221.321H597.06ZM602.481 221.321L600.197 217.696L602.026 215.725L605.691 221.321H602.481ZM610.281 221.486C609.368 221.486 608.58 221.306 607.917 220.946C607.258 220.583 606.75 220.066 606.394 219.395C606.042 218.721 605.866 217.92 605.866 216.992C605.866 216.09 606.044 215.302 606.4 214.628C606.756 213.95 607.258 213.424 607.906 213.049C608.553 212.67 609.317 212.48 610.195 212.48C610.817 212.48 611.385 212.577 611.9 212.77C612.415 212.963 612.86 213.249 613.235 213.628C613.61 214.007 613.902 214.475 614.11 215.032C614.318 215.585 614.423 216.219 614.423 216.935V217.628H606.837V216.014H611.837C611.834 215.719 611.763 215.456 611.627 215.225C611.491 214.994 611.303 214.814 611.065 214.685C610.83 214.552 610.559 214.486 610.252 214.486C609.942 214.486 609.663 214.556 609.417 214.696C609.171 214.833 608.976 215.02 608.832 215.259C608.688 215.494 608.612 215.761 608.604 216.06V217.702C608.604 218.058 608.674 218.371 608.815 218.639C608.955 218.905 609.154 219.111 609.411 219.259C609.669 219.407 609.976 219.48 610.332 219.48C610.578 219.48 610.801 219.446 611.002 219.378C611.203 219.31 611.375 219.21 611.519 219.077C611.663 218.944 611.771 218.782 611.843 218.588L614.394 218.662C614.288 219.234 614.055 219.732 613.695 220.157C613.339 220.577 612.871 220.905 612.292 221.139C611.712 221.371 611.042 221.486 610.281 221.486ZM620.768 212.594V214.639H615.262V212.594H620.768ZM616.415 210.503H619.194V218.577C619.194 218.747 619.22 218.886 619.273 218.992C619.33 219.094 619.412 219.168 619.518 219.213C619.624 219.255 619.751 219.276 619.898 219.276C620.004 219.276 620.116 219.266 620.234 219.247C620.355 219.225 620.446 219.206 620.506 219.191L620.927 221.196C620.794 221.234 620.607 221.282 620.364 221.338C620.126 221.395 619.84 221.431 619.506 221.446C618.855 221.477 618.296 221.401 617.83 221.219C617.368 221.033 617.014 220.746 616.768 220.355C616.525 219.965 616.408 219.475 616.415 218.884V210.503ZM625.623 221.321V209.685H628.435V219.037H633.276V221.321H625.623ZM638.812 221.486C637.899 221.486 637.111 221.306 636.448 220.946C635.789 220.583 635.281 220.066 634.925 219.395C634.573 218.721 634.397 217.92 634.397 216.992C634.397 216.09 634.575 215.302 634.931 214.628C635.287 213.95 635.789 213.424 636.437 213.049C637.085 212.67 637.848 212.48 638.727 212.48C639.348 212.48 639.916 212.577 640.431 212.77C640.946 212.963 641.391 213.249 641.766 213.628C642.141 214.007 642.433 214.475 642.641 215.032C642.85 215.585 642.954 216.219 642.954 216.935V217.628H635.369V216.014H640.369C640.365 215.719 640.295 215.456 640.158 215.225C640.022 214.994 639.835 214.814 639.596 214.685C639.361 214.552 639.09 214.486 638.783 214.486C638.473 214.486 638.194 214.556 637.948 214.696C637.702 214.833 637.507 215.02 637.363 215.259C637.219 215.494 637.143 215.761 637.136 216.06V217.702C637.136 218.058 637.206 218.371 637.346 218.639C637.486 218.905 637.685 219.111 637.942 219.259C638.2 219.407 638.507 219.48 638.863 219.48C639.109 219.48 639.333 219.446 639.533 219.378C639.734 219.31 639.906 219.21 640.05 219.077C640.194 218.944 640.302 218.782 640.374 218.588L642.925 218.662C642.819 219.234 642.586 219.732 642.227 220.157C641.871 220.577 641.403 220.905 640.823 221.139C640.244 221.371 639.573 221.486 638.812 221.486ZM652.604 212.594L649.61 221.321H646.428L643.44 212.594H646.366L647.974 218.605H648.065L649.678 212.594H652.604ZM657.468 221.486C656.555 221.486 655.767 221.306 655.104 220.946C654.445 220.583 653.938 220.066 653.582 219.395C653.229 218.721 653.053 217.92 653.053 216.992C653.053 216.09 653.231 215.302 653.587 214.628C653.943 213.95 654.445 213.424 655.093 213.049C655.741 212.67 656.504 212.48 657.383 212.48C658.004 212.48 658.572 212.577 659.087 212.77C659.603 212.963 660.048 213.249 660.423 213.628C660.798 214.007 661.089 214.475 661.298 215.032C661.506 215.585 661.61 216.219 661.61 216.935V217.628H654.025V216.014H659.025C659.021 215.719 658.951 215.456 658.815 215.225C658.678 214.994 658.491 214.814 658.252 214.685C658.017 214.552 657.746 214.486 657.44 214.486C657.129 214.486 656.851 214.556 656.604 214.696C656.358 214.833 656.163 215.02 656.019 215.259C655.875 215.494 655.799 215.761 655.792 216.06V217.702C655.792 218.058 655.862 218.371 656.002 218.639C656.142 218.905 656.341 219.111 656.599 219.259C656.856 219.407 657.163 219.48 657.519 219.48C657.765 219.48 657.989 219.446 658.19 219.378C658.39 219.31 658.563 219.21 658.707 219.077C658.851 218.944 658.959 218.782 659.031 218.588L661.582 218.662C661.476 219.234 661.243 219.732 660.883 220.157C660.527 220.577 660.059 220.905 659.479 221.139C658.9 221.371 658.229 221.486 657.468 221.486ZM665.808 209.685V221.321H663.029V209.685H665.808Z" fill="white"/>
<rect x="439" y="219.321" width="68" height="6" fill="#070A0E"/>
</svg>
