<?xml version="1.0" encoding="UTF-8"?>
<svg xmlns="http://www.w3.org/2000/svg" xmlns:xlink="http://www.w3.org/1999/xlink" width="24px" height="24px" viewBox="0 0 24 24" version="1.1">
  <g id="surface1">
    <path style=" stroke:none;fill-rule:evenodd;fill:rgb(94.117647%,72.54902%,4.313725%);fill-opacity:1;" d="M 12 0 C 18.628906 0 24 5.371094 24 12 C 24 18.628906 18.628906 24 12 24 C 5.371094 24 0 18.628906 0 12 C 0 5.371094 5.371094 0 12 0 Z M 12 0 "/>
    <path style=" stroke:none;fill-rule:nonzero;fill:rgb(100%,100%,100%);fill-opacity:1;" d="M 6.59375 12 L 6.605469 15.171875 L 9.300781 16.757812 L 9.300781 18.617188 L 5.027344 16.109375 L 5.027344 11.070312 Z M 6.59375 8.828125 L 6.59375 10.675781 L 5.023438 9.746094 L 5.023438 7.898438 L 6.59375 6.96875 L 8.171875 7.898438 Z M 10.425781 7.898438 L 11.996094 6.96875 L 13.574219 7.898438 L 11.996094 8.828125 Z M 10.425781 7.898438 "/>
    <path style=" stroke:none;fill-rule:nonzero;fill:rgb(100%,100%,100%);fill-opacity:1;" d="M 7.730469 14.515625 L 7.730469 12.65625 L 9.300781 13.585938 L 9.300781 15.4375 Z M 10.425781 17.425781 L 11.996094 18.355469 L 13.574219 17.425781 L 13.574219 19.273438 L 11.996094 20.203125 L 10.425781 19.273438 Z M 15.824219 7.898438 L 17.394531 6.96875 L 18.972656 7.898438 L 18.972656 9.746094 L 17.394531 10.675781 L 17.394531 8.828125 Z M 17.394531 15.171875 L 17.40625 12 L 18.976562 11.070312 L 18.976562 16.109375 L 14.699219 18.617188 L 14.699219 16.757812 Z M 17.394531 15.171875 "/>
    <path style=" stroke:none;fill-rule:nonzero;fill:rgb(100%,100%,100%);fill-opacity:1;" d="M 16.269531 14.515625 L 14.699219 15.4375 L 14.699219 13.585938 L 16.269531 12.65625 Z M 16.269531 14.515625 "/>
    <path style=" stroke:none;fill-rule:nonzero;fill:rgb(100%,100%,100%);fill-opacity:1;" d="M 16.269531 9.484375 L 16.277344 11.34375 L 13.574219 12.929688 L 13.574219 16.109375 L 12.003906 17.03125 L 10.433594 16.109375 L 10.433594 12.929688 L 7.730469 11.34375 L 7.730469 9.484375 L 9.308594 8.554688 L 11.996094 10.148438 L 14.699219 8.554688 L 16.277344 9.484375 Z M 7.730469 6.3125 L 11.996094 3.796875 L 16.269531 6.3125 L 14.699219 7.242188 L 11.996094 5.648438 L 9.300781 7.242188 Z M 7.730469 6.3125 "/>
  </g>
</svg>
