<svg width="24" height="24" viewBox="0 0 24 24" fill="none" xmlns="http://www.w3.org/2000/svg">
<path d="M7.33944 10.0853L12.0003 5.42462L16.6636 10.0877L19.3756 7.37573L12.0003 0.000244141L4.62744 7.37327L7.33944 10.0853Z" fill="#F3BA2F"/>
<path d="M5.42386 11.9995L2.71191 9.2876L-0.000170081 11.9997L2.71178 14.7116L5.42386 11.9995Z" fill="#F3BA2F"/>
<path d="M7.33902 13.9149L11.9999 18.5755L16.663 13.9126L19.3765 16.6231L19.3752 16.6246L11.9999 23.9999L4.62684 16.6271L4.62305 16.6233L7.33902 13.9149Z" fill="#F3BA2F"/>
<path d="M21.2879 14.7133L24 12.0012L21.288 9.28927L18.576 12.0014L21.2879 14.7133Z" fill="#F3BA2F"/>
<path d="M14.7508 11.9988H14.7519L11.9999 9.24683L9.96614 11.2806H9.96595L9.73242 11.5143L9.25037 11.9964L9.24658 12.0001L9.25037 12.0041L11.9999 14.7537L14.7519 12.0017L14.7532 12.0001L14.7508 11.9988Z" fill="#F3BA2F"/>
</svg>
