<svg width="15" height="15" viewBox="0 0 15 15" fill="none" xmlns="http://www.w3.org/2000/svg">
<g clip-path="url(#clip0_438_883)">
<path d="M12.3864 15H2.65152C1.17424 15 0 13.8258 0 12.3485V2.65152C0 1.17424 1.17424 0 2.65152 0H5.68182C6.21212 0 6.62879 0.416667 6.62879 0.94697C6.62879 1.47727 6.21212 1.89394 5.68182 1.89394H2.65152C2.23485 1.89394 1.89394 2.23485 1.89394 2.65152V12.3864C1.89394 12.803 2.23485 13.1439 2.65152 13.1439H12.3864C12.803 13.1439 13.1439 12.803 13.1439 12.3864V9.09091C13.1439 8.56061 13.5606 8.14394 14.0909 8.14394C14.6212 8.14394 15.0379 8.56061 15.0379 9.09091V12.3485C15 13.8258 13.8258 15 12.3864 15Z" fill="#808191"/>
<path d="M14.053 6.89394C13.5227 6.89394 13.1061 6.47727 13.1061 5.94697V1.89394H8.82575C8.29545 1.89394 7.87878 1.47727 7.87878 0.94697C7.87878 0.416667 8.29545 0 8.82575 0H13.2576C14.2424 0 15.0379 0.795455 15.0379 1.7803V5.98485C15 6.47727 14.5833 6.89394 14.053 6.89394Z" fill="#808191"/>
<path d="M5.4924 10.379C5.26513 10.379 4.99997 10.3032 4.81058 10.1138C4.43179 9.73506 4.43179 9.129 4.81058 8.78809L12.6515 0.947177C13.0303 0.568389 13.6363 0.568389 13.9772 0.947177C14.3182 1.32596 14.356 1.93203 13.9772 2.27293L6.17422 10.1138C5.98482 10.3032 5.75755 10.379 5.4924 10.379Z" fill="#808191"/>
</g>
<defs>
<clipPath id="clip0_438_883">
<rect width="15" height="15" fill="white"/>
</clipPath>
</defs>
</svg>
