<svg width="136" height="125" viewBox="0 0 136 125" fill="none" xmlns="http://www.w3.org/2000/svg">
<path d="M73.9986 99.0395V124.79H0V2.41967e-06H77.7923C104.453 0 136 21.5139 136 63.3853H110C110 43.4855 93.3605 26.5766 77.7923 26.5766H26.5391V99.0395H73.9986Z" fill="#01A7FA"/>
<mask id="path-2-inside-1_913_3172" fill="white">
<path fill-rule="evenodd" clip-rule="evenodd" d="M51.9999 47.5389H81.9999V70.5425L97.4955 83.1934H136V124.79H91.9999V90.9905L75.1707 77.2508H51.9999V47.5389Z"/>
</mask>
<path fill-rule="evenodd" clip-rule="evenodd" d="M51.9999 47.5389H81.9999V70.5425L97.4955 83.1934H136V124.79H91.9999V90.9905L75.1707 77.2508H51.9999V47.5389Z" fill="#F2F2F2"/>
<path d="M81.9999 47.5389H82.9999V46.5389H81.9999V47.5389ZM51.9999 47.5389V46.5389H50.9999V47.5389H51.9999ZM81.9999 70.5425H80.9999V71.017L81.3674 71.3171L81.9999 70.5425ZM97.4955 83.1934L96.863 83.968L97.1391 84.1934H97.4955V83.1934ZM136 83.1934H137V82.1934H136V83.1934ZM136 124.79V125.79H137V124.79H136ZM91.9999 124.79H90.9999V125.79H91.9999V124.79ZM91.9999 90.9905H92.9999V90.516L92.6324 90.2159L91.9999 90.9905ZM75.1707 77.2508L75.8031 76.4762L75.5271 76.2508H75.1707V77.2508ZM51.9999 77.2508H50.9999V78.2508H51.9999V77.2508ZM81.9999 46.5389H51.9999V48.5389H81.9999V46.5389ZM82.9999 70.5425V47.5389H80.9999V70.5425H82.9999ZM81.3674 71.3171L96.863 83.968L98.1279 82.4188L82.6323 69.7679L81.3674 71.3171ZM136 82.1934H97.4955V84.1934H136V82.1934ZM137 124.79V83.1934H135V124.79H137ZM91.9999 125.79H136V123.79H91.9999V125.79ZM90.9999 90.9905V124.79H92.9999V90.9905H90.9999ZM92.6324 90.2159L75.8031 76.4762L74.5383 78.0254L91.3675 91.7652L92.6324 90.2159ZM51.9999 78.2508H75.1707V76.2508H51.9999V78.2508ZM50.9999 47.5389V77.2508H52.9999V47.5389H50.9999Z" fill="#01A7FA" mask="url(#path-2-inside-1_913_3172)"/>
</svg>
