<svg width="351" height="408" viewBox="0 0 351 408" fill="none" xmlns="http://www.w3.org/2000/svg">
<path d="M190.67 265.668V316.661C190.67 321.079 187.089 324.661 182.67 324.661H8C3.58172 324.661 0 321.079 0 316.661V8C0 3.58172 3.54561 0 7.96389 0H199.903C200.318 0 200.665 0.0341066 201.074 0.0992706C325.598 19.9047 352.683 109.209 350.921 157.741C350.772 161.838 347.312 164.907 343.213 164.907H292.878C287.935 164.907 284.082 160.437 283.89 155.497C283.385 142.48 278.731 122.159 262.821 103.067C242.208 78.331 212.648 70.1446 200.446 69.1434H76.3826C71.9643 69.1434 68.3826 72.7252 68.3826 77.1434V249.668C68.3826 254.086 71.9643 257.668 76.3826 257.668H182.67C187.089 257.668 190.67 261.249 190.67 265.668Z" fill="#01A7FA"/>
<path fill-rule="evenodd" clip-rule="evenodd" d="M133.987 131.68C133.987 127.262 137.569 123.68 141.987 123.68H203.288C207.706 123.68 211.288 127.262 211.288 131.68V183.528L251.214 216.441H342.428C346.846 216.441 350.428 220.022 350.428 224.441V316.661C350.428 321.079 346.846 324.661 342.428 324.661H245.054C240.636 324.661 237.054 321.079 237.054 316.661V236.726L193.691 200.981H141.987C137.569 200.981 133.987 197.399 133.987 192.981V131.68Z" fill="#F2F2F2"/>
<path d="M296.416 405.422C294.698 405.422 293.305 404.029 293.305 402.311V380.115C293.305 375.333 294.405 370.969 296.606 367.023C298.883 363.076 302.147 359.926 306.397 357.573C310.647 355.221 315.732 354.044 321.652 354.044C327.648 354.044 332.733 355.221 336.908 357.573C341.158 359.926 344.384 363.076 346.585 367.023C348.862 370.969 350 375.333 350 380.115V402.311C350 404.029 348.607 405.422 346.889 405.422H337.515C335.796 405.422 334.403 404.029 334.403 402.311V380.115C334.403 377.762 333.834 375.637 332.695 373.74C331.557 371.766 330.001 370.21 328.028 369.072C326.13 367.933 324.005 367.364 321.652 367.364C319.3 367.364 317.136 367.933 315.163 369.072C313.266 370.21 311.748 371.766 310.609 373.74C309.471 375.637 308.902 377.762 308.902 380.115V402.311C308.902 404.029 307.509 405.422 305.79 405.422H296.416Z" fill="#F2F2F2"/>
<path d="M4.31039 339.729H29.8916C56.5973 339.729 67.8417 350.13 67.8417 372.525C67.8417 394.921 56.5973 405.322 29.8916 405.322H4.31039C1.96779 405.322 0 403.448 0 401.105V344.133C0 341.697 1.87408 339.729 4.31039 339.729ZM29.4231 352.66H17.2415V392.391H29.4231C46.1961 392.391 50.6002 386.581 50.6002 372.525C50.6002 358.47 46.1961 352.66 29.4231 352.66Z" fill="#F2F2F2"/>
<path d="M129.707 385.082H95.2238C95.8797 392.578 99.2531 395.858 106.937 395.858C110.872 395.858 114.339 394.733 115.932 392.765C117.151 391.266 118.837 390.329 121.18 390.329H128.02C129.613 390.329 130.831 391.547 130.831 393.14C130.831 402.886 120.805 406.259 105.812 406.259C89.1331 406.259 79.1067 397.263 79.1067 380.303C79.1067 363.436 89.2268 354.253 105.812 354.253C122.492 354.253 132.518 363.155 132.518 379.647V382.271C132.518 383.864 131.3 385.082 129.707 385.082ZM105.812 364.654C99.0657 364.654 95.5049 368.402 95.1301 375.43H116.401C116.12 368.402 112.746 364.654 105.812 364.654Z" fill="#F2F2F2"/>
<path d="M185.544 357.064V363.998C185.544 365.591 184.325 366.809 182.732 366.809H181.233C179.078 366.809 176.642 366.528 174.205 366.528C169.52 366.528 165.772 369.246 162.399 373.275V402.511C162.399 404.104 161.181 405.322 159.588 405.322H149.374C147.781 405.322 146.563 404.104 146.563 402.511V358.001C146.563 356.408 147.781 355.19 149.374 355.19H159.588C161.181 355.19 162.399 356.408 162.399 358.001V360.906C167.646 357.064 172.425 354.253 182.732 354.253C184.325 354.253 185.544 355.471 185.544 357.064Z" fill="#F2F2F2"/>
<path d="M210.968 405.322H200.754C199.161 405.322 197.943 404.104 197.943 402.511V357.064C197.943 355.471 199.161 354.253 200.754 354.253H210.968C212.561 354.253 213.779 355.471 213.779 357.064V402.511C213.779 404.104 212.561 405.322 210.968 405.322ZM197.756 345.92V344.327C197.756 341.047 199.724 339.08 203.003 339.08H208.719C211.999 339.08 213.967 341.047 213.967 344.327V345.92C213.967 349.2 211.999 351.167 208.719 351.167H203.003C199.724 351.167 197.756 349.2 197.756 345.92Z" fill="#F2F2F2"/>
<path d="M253.128 344.068H253.123C250.819 344.07 248.952 345.946 248.955 348.256L248.981 372.996C248.983 375.305 250.851 377.175 253.154 377.175H253.158C255.463 377.173 257.329 375.297 257.327 372.987L257.3 348.247C257.298 345.938 255.43 344.068 253.128 344.068Z" fill="white" stroke="white" stroke-width="2.38711"/>
<path d="M240.761 355.456C239.903 355.456 239.037 355.721 238.293 356.271L236.685 357.461C236.587 357.532 236.493 357.609 236.402 357.689L234.903 359.014C234.812 359.094 234.725 359.178 234.642 359.266L233.263 360.717C233.18 360.805 233.1 360.896 233.025 360.991L231.777 362.557C231.702 362.652 231.631 362.75 231.564 362.851L230.457 364.519C230.39 364.62 230.327 364.724 230.269 364.831L229.312 366.59C229.254 366.696 229.201 366.805 229.152 366.916L228.351 368.752C228.302 368.863 228.259 368.977 228.22 369.091L227.581 370.99C227.543 371.105 227.509 371.222 227.48 371.34L227.009 373.287C226.98 373.405 226.957 373.524 226.939 373.644L226.638 375.625C226.62 375.745 226.607 375.866 226.599 375.987L226.471 377.986C226.464 378.108 226.461 378.229 226.464 378.35L226.51 380.353C226.513 380.475 226.521 380.596 226.535 380.716L226.755 382.708C226.768 382.828 226.787 382.949 226.81 383.067L227.203 385.032C227.227 385.151 227.256 385.269 227.289 385.385L227.851 387.309C227.885 387.425 227.924 387.54 227.968 387.653L228.694 389.52C228.738 389.633 228.787 389.744 228.841 389.853L229.726 391.649C229.78 391.758 229.838 391.864 229.901 391.968L230.939 393.681C231.002 393.784 231.069 393.885 231.141 393.983L232.324 395.598C232.395 395.696 232.471 395.79 232.551 395.882L233.87 397.387C233.949 397.479 234.033 397.566 234.121 397.65L235.565 399.035C235.652 399.119 235.743 399.199 235.838 399.275L237.397 400.529C237.491 400.605 237.589 400.676 237.689 400.744L239.351 401.856C239.452 401.924 239.556 401.987 239.662 402.045L241.414 403.009C241.52 403.067 241.629 403.121 241.739 403.17L243.569 403.977C243.679 404.026 243.792 404.07 243.907 404.109L245.799 404.753C245.914 404.792 246.03 404.826 246.147 404.855L248.089 405.332C248.206 405.36 248.325 405.384 248.444 405.403L250.42 405.708C250.539 405.727 250.659 405.74 250.78 405.748L252.774 405.88C252.866 405.886 252.957 405.889 253.049 405.889C253.079 405.889 253.11 405.888 253.14 405.888L255.174 405.843C255.297 405.84 255.42 405.832 255.542 405.818L257.564 405.593C257.686 405.579 257.808 405.56 257.928 405.536L259.922 405.132C260.042 405.107 260.162 405.077 260.28 405.042L262.23 404.463C262.348 404.428 262.464 404.387 262.579 404.342L264.47 403.592C264.585 403.546 264.697 403.496 264.807 403.44L266.624 402.525C266.734 402.469 266.842 402.409 266.947 402.344L268.676 401.271C268.781 401.206 268.883 401.137 268.981 401.062L270.609 399.84C270.708 399.766 270.803 399.688 270.894 399.605L272.408 398.243C272.499 398.16 272.587 398.074 272.671 397.984L274.058 396.492C274.142 396.402 274.222 396.308 274.298 396.211L275.548 394.602C275.623 394.504 275.695 394.404 275.761 394.3L276.864 392.587C276.931 392.483 276.993 392.376 277.05 392.267L277.997 390.462C278.055 390.353 278.107 390.241 278.155 390.128L278.939 388.246C278.986 388.132 279.029 388.016 279.066 387.898L279.681 385.955C279.718 385.837 279.75 385.718 279.776 385.597L280.217 383.606C280.244 383.486 280.265 383.364 280.281 383.242L280.544 381.22C280.56 381.097 280.57 380.974 280.575 380.851L280.659 378.813C280.664 378.69 280.663 378.566 280.657 378.443L280.56 376.406C280.554 376.283 280.543 376.16 280.526 376.038L280.25 374.017C280.233 373.895 280.211 373.774 280.183 373.653L279.729 371.666C279.702 371.545 279.669 371.426 279.631 371.309L279.003 369.369C278.965 369.252 278.922 369.136 278.874 369.022L278.077 367.146C278.029 367.032 277.976 366.921 277.918 366.812L276.958 365.014C276.9 364.905 276.838 364.799 276.77 364.696L275.656 362.99C275.588 362.887 275.516 362.786 275.44 362.69L274.179 361.09C274.103 360.993 274.022 360.899 273.938 360.809L272.54 359.328C272.456 359.238 272.367 359.152 272.275 359.07L270.753 357.718C270.66 357.636 270.565 357.559 270.466 357.485L268.83 356.274C268.085 355.723 267.219 355.457 266.359 355.457C265.083 355.457 263.823 356.043 263.007 357.152C261.64 359.007 262.032 361.621 263.882 362.991L265.37 364.092L266.616 365.198L267.759 366.411L268.791 367.72L269.702 369.116L270.488 370.588L271.139 372.123L271.653 373.71L272.025 375.337L272.251 376.99L272.33 378.657L272.262 380.324L272.047 381.978L271.687 383.608L271.184 385.198L270.542 386.738L269.767 388.215L268.865 389.617L267.842 390.933L266.707 392.153L265.468 393.268L264.136 394.269L262.721 395.147L261.234 395.896L259.687 396.51L258.091 396.984L256.46 397.314L254.806 397.499L253.14 397.536L251.51 397.428L249.894 397.178L248.305 396.788L246.757 396.26L245.26 395.6L243.826 394.812L242.466 393.901L241.19 392.875L240.008 391.741L238.929 390.509L237.961 389.188L237.112 387.787L236.387 386.316L235.793 384.789L235.334 383.215L235.013 381.607L234.832 379.977L234.794 378.338L234.899 376.702L235.145 375.081L235.531 373.487L236.053 371.933L236.709 370.431L237.493 368.992L238.398 367.627L239.419 366.345L240.547 365.158L241.773 364.074L243.236 362.993C245.087 361.624 245.481 359.01 244.116 357.155C243.3 356.044 242.039 355.456 240.761 355.456Z" fill="white" stroke="white" stroke-width="2.38711"/>
</svg>
