<svg width="160" height="160" viewBox="0 0 160 160" fill="none" xmlns="http://www.w3.org/2000/svg">
<rect width="160" height="160" fill="black"/>
<path d="M85.7613 113.922V138.082H17V21H89.2865C136.708 28.4338 145.104 63.7443 143.375 80.4704H119.215C119.834 76.7535 119.215 67.0896 111.781 58.169C104.347 49.2484 93.6873 46.2962 89.2865 45.9351H41.6608V113.922H85.7613Z" fill="#01A7FA" stroke="#1F2128" stroke-width="0.5"/>
<mask id="path-2-inside-1_1569_7736" fill="white">
<path fill-rule="evenodd" clip-rule="evenodd" d="M65.3196 65.6029H93.1963V87.1854L107.595 99.055H143.375V138.082H102.489V106.371L86.8507 93.4796H65.3196V65.6029Z"/>
</mask>
<path fill-rule="evenodd" clip-rule="evenodd" d="M65.3196 65.6029H93.1963V87.1854L107.595 99.055H143.375V138.082H102.489V106.371L86.8507 93.4796H65.3196V65.6029Z" fill="#F2F2F2"/>
<path d="M93.1963 65.6029H94.1963V64.6029H93.1963V65.6029ZM65.3196 65.6029V64.6029H64.3196V65.6029H65.3196ZM93.1963 87.1854H92.1963V87.6571L92.5602 87.9571L93.1963 87.1854ZM107.595 99.055L106.959 99.8266L107.236 100.055H107.595V99.055ZM143.375 99.055H144.375V98.055H143.375V99.055ZM143.375 138.082V139.082H144.375V138.082H143.375ZM102.489 138.082H101.489V139.082H102.489V138.082ZM102.489 106.371H103.489V105.899L103.125 105.599L102.489 106.371ZM86.8507 93.4796L87.4868 92.708L87.2097 92.4796H86.8507V93.4796ZM65.3196 93.4796H64.3196V94.4796H65.3196V93.4796ZM93.1963 64.6029H65.3196V66.6029H93.1963V64.6029ZM94.1963 87.1854V65.6029H92.1963V87.1854H94.1963ZM92.5602 87.9571L106.959 99.8266L108.231 98.2833L93.8324 86.4138L92.5602 87.9571ZM143.375 98.055H107.595V100.055H143.375V98.055ZM144.375 138.082V99.055H142.375V138.082H144.375ZM102.489 139.082H143.375V137.082H102.489V139.082ZM101.489 106.371V138.082H103.489V106.371H101.489ZM103.125 105.599L87.4868 92.708L86.2146 94.2512L101.853 107.142L103.125 105.599ZM65.3196 94.4796H86.8507V92.4796H65.3196V94.4796ZM64.3196 65.6029V93.4796H66.3196V65.6029H64.3196Z" fill="#1F2128" mask="url(#path-2-inside-1_1569_7736)"/>
</svg>
