<svg width="372" height="71" viewBox="0 0 372 71" fill="none" xmlns="http://www.w3.org/2000/svg">
<path d="M315.249 69.6458C313.455 69.6458 312 68.1913 312 66.397V43.2214C312 38.2289 313.149 33.6721 315.447 29.5513C317.825 25.4304 321.232 22.1417 325.67 19.685C330.108 17.2283 335.418 16 341.599 16C347.859 16 353.169 17.2283 357.528 19.685C361.965 22.1417 365.333 25.4304 367.632 29.5513C370.009 33.6721 371.198 38.2289 371.198 43.2214V66.397C371.198 68.1913 369.743 69.6458 367.949 69.6458H358.161C356.367 69.6458 354.912 68.1913 354.912 66.397V43.2214C354.912 40.7648 354.318 38.5459 353.129 36.5647C351.941 34.5042 350.316 32.8797 348.256 31.691C346.274 30.5023 344.056 29.9079 341.599 29.9079C339.142 29.9079 336.884 30.5023 334.823 31.691C332.842 32.8797 331.257 34.5042 330.068 36.5647C328.88 38.5459 328.285 40.7648 328.285 43.2214V66.397C328.285 68.1913 326.831 69.6458 325.037 69.6458H315.249Z" fill="#F2F2F2"/>
<path d="M140.834 48.0325H104.828C105.513 55.8597 109.036 59.2841 117.058 59.2841C121.168 59.2841 124.788 58.11 126.451 56.0554C127.723 54.49 129.484 53.5116 131.93 53.5116H139.072C140.736 53.5116 142.008 54.7835 142.008 56.4468C142.008 66.6221 131.539 70.1443 115.884 70.1443C98.4689 70.1443 88 60.7517 88 43.0427C88 25.4315 98.5667 15.8432 115.884 15.8432C133.3 15.8432 143.769 25.138 143.769 42.3578V45.0973C143.769 46.7606 142.497 48.0325 140.834 48.0325ZM115.884 26.7034C108.84 26.7034 105.122 30.617 104.731 37.955H126.94C126.647 30.617 123.124 26.7034 115.884 26.7034Z" fill="#F2F2F2"/>
<path d="M199.135 18.7784V26.0186C199.135 27.6818 197.863 28.9538 196.199 28.9538H194.634C192.384 28.9538 189.84 28.6602 187.296 28.6602C182.404 28.6602 178.49 31.4976 174.968 35.7047V66.2307C174.968 67.894 173.696 69.1659 172.033 69.1659H161.368C159.705 69.1659 158.433 67.894 158.433 66.2307V19.7568C158.433 18.0935 159.705 16.8216 161.368 16.8216H172.033C173.696 16.8216 174.968 18.0935 174.968 19.7568V22.7899C180.447 18.7784 185.437 15.8432 196.199 15.8432C197.863 15.8432 199.135 17.1151 199.135 18.7784Z" fill="#F2F2F2"/>
<path d="M225.681 69.1659H215.017C213.353 69.1659 212.082 67.894 212.082 66.2307V18.7784C212.082 17.1151 213.353 15.8432 215.017 15.8432H225.681C227.345 15.8432 228.616 17.1151 228.616 18.7784V66.2307C228.616 67.894 227.345 69.1659 225.681 69.1659ZM211.886 7.14231V5.47903C211.886 2.05464 213.94 0 217.365 0H223.333C226.758 0 228.812 2.05464 228.812 5.47903V7.14231C228.812 10.5667 226.758 12.6213 223.333 12.6213H217.365C213.94 12.6213 211.886 10.5667 211.886 7.14231Z" fill="#F2F2F2"/>
<path d="M40.6549 57.6458V68.5187C40.6549 69.4608 39.8912 70.2245 38.9491 70.2245H1.70577C0.763698 70.2245 0 69.4608 0 68.5187V2.70577C0 1.7637 0.755997 1 1.69807 1H42.6234C42.7119 1 42.7859 1.00727 42.8732 1.02117C69.4243 5.2441 75.1994 24.2856 74.8237 34.6338C74.792 35.5073 74.0542 36.1617 73.1801 36.1617H62.4477C61.3936 36.1617 60.5721 35.2085 60.5313 34.1553C60.4235 31.3796 59.4313 27.0469 56.0389 22.976C51.6437 17.7018 45.3411 15.9563 42.7392 15.7428H16.2864C15.3443 15.7428 14.5806 16.5065 14.5806 17.4486V54.2343C14.5806 55.1764 15.3443 55.9401 16.2864 55.9401H38.9491C39.8912 55.9401 40.6549 56.7038 40.6549 57.6458Z" fill="#01A7FA"/>
<path fill-rule="evenodd" clip-rule="evenodd" d="M28.5688 29.0769C28.5688 28.1348 29.3325 27.3711 30.2746 27.3711H43.3451C44.2872 27.3711 45.0509 28.1348 45.0509 29.0769V40.1323L53.5638 47.1498H73.0122C73.9543 47.1498 74.718 47.9135 74.718 48.8555V68.5188C74.718 69.4609 73.9543 70.2246 73.0122 70.2246H52.2501C51.308 70.2246 50.5443 69.4609 50.5443 68.5188V51.4749L41.2984 43.8531H30.2746C29.3325 43.8531 28.5688 43.0894 28.5688 42.1474V29.0769Z" fill="#F2F2F2"/>
<path d="M269.931 5H269.927C267.513 5.00258 265.558 6.96693 265.56 9.38748L265.588 35.3019C265.59 37.7208 267.547 39.68 269.959 39.68H269.964C272.378 39.6774 274.333 37.7131 274.33 35.2925L274.302 9.37806C274.3 6.95918 272.343 5 269.931 5Z" fill="#F2F2F2" stroke="#F2F2F2" stroke-width="2.50051"/>
<path d="M256.978 16.9294C256.079 16.9294 255.172 17.2071 254.393 17.7831L252.708 19.0289C252.606 19.1043 252.507 19.1842 252.412 19.2682L250.841 20.6562C250.746 20.7402 250.655 20.8282 250.567 20.9204L249.123 22.4401C249.036 22.5321 248.953 22.6279 248.874 22.7272L247.567 24.3674C247.488 24.4667 247.413 24.5694 247.343 24.6751L246.184 26.4231C246.114 26.5289 246.048 26.6376 245.987 26.7493L244.984 28.5918C244.923 28.7034 244.868 28.8174 244.817 28.9339L243.978 30.8569C243.927 30.9734 243.881 31.092 243.841 31.2123L243.172 33.2012C243.131 33.3216 243.096 33.4438 243.066 33.5673L242.572 35.6072C242.542 35.7307 242.517 35.8555 242.498 35.981L242.183 38.0562C242.164 38.1817 242.151 38.3082 242.143 38.435L242.009 40.5299C242.001 40.6567 241.998 40.7837 242.001 40.9109L242.05 43.0093C242.053 43.1363 242.061 43.2632 242.075 43.3894L242.306 45.4756C242.32 45.6019 242.339 45.7277 242.364 45.8523L242.775 47.9104C242.8 48.035 242.83 48.1583 242.866 48.2804L243.454 50.2949C243.489 50.417 243.531 50.5372 243.577 50.6557L244.337 52.6112C244.383 52.7295 244.434 52.846 244.491 52.9599L245.418 54.8417C245.474 54.9557 245.536 55.067 245.601 55.1757L246.689 56.9695C246.754 57.078 246.825 57.1838 246.9 57.2861L248.139 58.978C248.214 59.0804 248.294 59.1796 248.377 59.275L249.759 60.8524C249.842 60.948 249.93 61.0396 250.021 61.1275L251.534 62.5784C251.626 62.6663 251.721 62.7501 251.82 62.8297L253.453 64.1429C253.552 64.2224 253.655 64.2976 253.76 64.3681L255.501 65.5338C255.606 65.6043 255.715 65.6704 255.826 65.7313L257.661 66.7408C257.772 66.8019 257.886 66.8582 258.002 66.9094L259.918 67.7548C260.034 67.8059 260.153 67.8521 260.272 67.8929L262.255 68.5678C262.375 68.6086 262.497 68.6443 262.62 68.6745L264.653 69.1739C264.776 69.2042 264.9 69.2291 265.026 69.2483L267.095 69.5683C267.22 69.5877 267.346 69.6015 267.472 69.61L269.561 69.7481C269.657 69.7544 269.753 69.7577 269.849 69.7577C269.881 69.7577 269.913 69.7573 269.945 69.7566L272.075 69.7095C272.204 69.7066 272.333 69.6981 272.461 69.6838L274.578 69.4477C274.706 69.4335 274.834 69.4136 274.96 69.3877L277.048 68.9646C277.175 68.9389 277.3 68.9077 277.424 68.871L279.466 68.2639C279.59 68.2272 279.712 68.1849 279.832 68.1373L281.813 67.3514C281.933 67.3037 282.05 67.2509 282.166 67.1928L284.069 66.2341C284.185 66.1759 284.297 66.1128 284.407 66.0448L286.218 64.9207C286.328 64.8525 286.435 64.7796 286.538 64.7021L288.243 63.4216C288.346 63.344 288.446 63.2619 288.542 63.1755L290.127 61.7485C290.223 61.6621 290.315 61.5715 290.403 61.477L291.856 59.9147C291.944 59.8202 292.028 59.7216 292.107 59.6197L293.416 57.9345C293.496 57.8326 293.57 57.727 293.64 57.6184L294.796 55.8236C294.866 55.715 294.931 55.6031 294.991 55.4888L295.983 53.5985C296.043 53.4841 296.098 53.367 296.147 53.2477L296.969 51.2768C297.018 51.1575 297.063 51.036 297.102 50.9127L297.746 48.8765C297.785 48.7532 297.818 48.6284 297.846 48.5021L298.307 46.4167C298.335 46.2904 298.358 46.163 298.375 46.0347L298.65 43.9165C298.667 43.7884 298.678 43.6594 298.683 43.5301L298.77 41.3959C298.775 41.2667 298.775 41.1373 298.769 41.0082L298.667 38.8746C298.661 38.7453 298.649 38.6167 298.632 38.4884L298.342 36.3723C298.325 36.2441 298.301 36.1169 298.272 35.9908L297.797 33.9087C297.768 33.7826 297.734 33.6578 297.694 33.5348L297.036 31.5031C296.996 31.3801 296.951 31.2589 296.901 31.14L296.066 29.1745C296.016 29.0554 295.96 28.9387 295.899 28.8248L294.894 26.9413C294.834 26.8273 294.768 26.7161 294.697 26.6079L293.53 24.821C293.459 24.7128 293.384 24.6078 293.303 24.5064L291.983 22.8302C291.903 22.7287 291.818 22.6309 291.73 22.5369L290.266 20.9846C290.178 20.8906 290.085 20.8005 289.989 20.7149L288.394 19.2987C288.297 19.2128 288.197 19.1316 288.093 19.0548L286.379 17.7859C285.6 17.2086 284.692 16.9302 283.792 16.9302C282.455 16.9302 281.135 17.5444 280.28 18.7057C278.848 20.6486 279.259 23.3869 281.197 24.8217L282.755 25.9754L284.06 27.1343L285.258 28.4046L286.338 29.7762L287.294 31.2384L288.116 32.7796L288.799 34.3878L289.337 36.0503L289.726 37.7541L289.963 39.4859L290.046 41.2318L289.975 42.9783L289.75 44.7115L289.372 46.4179L288.845 48.0841L288.173 49.697L287.361 51.2439L286.416 52.7125L285.345 54.0915L284.156 55.3698L282.859 56.5375L281.463 57.5854L279.981 58.5051L278.423 59.2898L276.802 59.933L275.131 60.4296L273.422 60.776L271.689 60.9691L269.945 61.0077L268.237 60.8947L266.544 60.6329L264.88 60.2243L263.258 59.6719L261.69 58.9802L260.188 58.1542L258.763 57.2003L257.427 56.1256L256.189 54.9383L255.059 53.6476L254.045 52.2632L253.155 50.7954L252.396 49.2555L251.773 47.6553L251.292 46.0068L250.956 44.3225L250.767 42.6153L250.727 40.8982L250.837 39.184L251.094 37.4859L251.499 35.8167L252.046 34.1891L252.733 32.6156L253.554 31.108L254.502 29.6778L255.571 28.3358L256.753 27.0922L258.038 25.9564L259.57 24.8239C261.509 23.3904 261.921 20.6525 260.492 18.7084C259.637 17.5455 258.316 16.9294 256.978 16.9294Z" fill="#F2F2F2" stroke="#F2F2F2" stroke-width="2.50051"/>
</svg>
